<?xml version="1.0" standalone="no"?>
<!DOCTYPE svg PUBLIC "-//W3C//DTD SVG 20010904//EN"
 "http://www.w3.org/TR/2001/REC-SVG-20010904/DTD/svg10.dtd">
<svg version="1.0" xmlns="http://www.w3.org/2000/svg"
 width="592.000000pt" height="592.000000pt" viewBox="0 0 592.000000 592.000000"
 preserveAspectRatio="xMidYMid meet">

<g transform="translate(0.000000,592.000000) scale(0.100000,-0.100000)"
fill="#b14364" stroke="none">
<path d="M2188 5786 c-20 -7 -58 -26 -85 -42 -26 -16 -63 -34 -81 -40 -81 -29
-123 -111 -130 -251 -5 -111 16 -219 61 -311 38 -78 112 -149 165 -157 69 -11
87 -20 86 -43 -1 -27 30 -38 146 -53 169 -22 305 23 405 133 30 34 55 64 55
67 0 4 -32 12 -70 18 -108 17 -125 43 -69 113 61 76 52 118 -68 312 -134 216
-276 304 -415 254z"/>
<path d="M2804 5033 c-46 -67 -102 -114 -180 -150 -55 -26 -68 -28 -189 -28
-98 0 -146 5 -193 19 l-63 19 -35 -33 c-18 -19 -34 -39 -34 -45 0 -31 186 -84
325 -92 148 -8 240 23 348 117 40 35 174 217 166 224 -2 2 -27 8 -56 13 l-52
10 -37 -54z"/>
<path d="M2999 4976 c-121 -204 -216 -286 -380 -327 -69 -18 -102 -21 -189
-16 -144 8 -227 32 -381 115 -4 1 -56 -55 -115 -125 -60 -70 -198 -228 -307
-352 l-198 -224 41 -23 c23 -13 55 -33 71 -45 17 -12 32 -19 34 -17 2 2 -9 30
-25 62 -32 63 -39 116 -16 116 8 0 48 -17 90 -38 42 -21 76 -38 76 -36 0 1
-16 19 -36 40 -105 114 -70 171 62 104 32 -16 61 -30 62 -30 2 0 -15 21 -37
47 -46 51 -59 86 -42 107 17 20 98 5 121 -23 3 -3 20 -14 37 -23 32 -17 32
-16 -17 48 -90 117 -56 147 84 75 42 -22 76 -38 76 -36 0 2 -12 17 -26 32 -50
52 -84 106 -84 131 0 22 3 24 33 18 17 -3 66 -23 109 -44 l76 -39 -49 59 c-86
104 -97 148 -32 134 39 -9 155 -84 148 -96 -10 -16 -35 -12 -67 11 -39 28 -47
17 -14 -21 28 -34 33 -65 14 -105 -14 -30 -24 -31 -63 -5 -42 28 -65 26 -37
-3 30 -32 41 -67 30 -99 -11 -32 -37 -39 -86 -24 l-24 8 23 -39 c41 -71 3
-120 -71 -94 l-31 10 20 -33 c27 -43 27 -81 0 -99 -20 -15 -37 -13 -94 9 -19
7 -19 6 1 -17 48 -54 57 -101 24 -119 -12 -6 -31 -8 -43 -4 -12 4 -23 6 -25 5
-1 -1 -16 6 -32 14 l-31 16 36 -49 c72 -100 30 -139 -87 -80 -21 10 -38 16
-38 12 0 -3 15 -24 34 -46 45 -52 60 -92 40 -109 -20 -16 -74 -5 -123 25 -22
14 -43 26 -46 26 -3 0 15 -25 41 -56 47 -59 68 -99 58 -115 -14 -24 -107 3
-174 51 -48 34 -44 22 15 -42 136 -150 102 -186 -77 -84 -43 24 -78 42 -78 39
0 -3 27 -34 59 -70 63 -70 100 -128 88 -139 -12 -12 -80 14 -165 65 -45 27
-82 46 -82 43 0 -4 17 -25 38 -48 20 -23 48 -59 62 -81 24 -39 28 -41 86 -47
65 -7 529 -7 629 -1 126 8 214 17 345 36 181 25 410 70 410 79 0 4 19 16 43
25 l42 17 -45 17 c-56 21 -57 40 -5 66 l40 19 -38 7 c-69 11 -73 44 -9 75 l37
18 -39 7 c-66 11 -66 47 -1 75 31 13 28 16 -27 28 -56 12 -30 50 57 82 17 7
16 8 -10 11 -72 8 -95 15 -95 28 0 41 272 112 294 77 5 -9 -32 -48 -70 -73
-20 -13 -16 -14 39 -14 35 0 62 -5 64 -11 2 -6 -11 -26 -29 -44 l-33 -32 32 7
c73 15 97 -25 42 -68 -32 -25 -32 -25 -6 -20 41 8 77 -5 77 -26 0 -11 -14 -31
-31 -45 l-30 -26 45 6 c59 8 69 -11 31 -60 l-27 -35 54 5 c120 13 416 127 712
275 245 123 315 167 300 191 -4 7 -2 8 5 4 6 -4 8 -12 5 -18 -5 -7 -2 -8 5 -4
7 5 10 15 6 25 -5 12 -4 13 6 4 9 -9 19 -8 43 4 40 20 92 64 89 74 -2 5 4 6
12 3 18 -7 87 45 78 59 -3 5 -1 7 5 3 23 -14 275 180 405 312 l68 69 -48 31
c-42 27 -179 79 -254 96 -23 5 -25 3 -21 -23 4 -31 -15 -76 -56 -130 -23 -31
-26 -33 -33 -15 -14 35 11 174 32 174 5 0 9 -10 9 -22 1 -22 1 -22 15 -4 19
25 13 32 -31 40 -19 4 -42 10 -49 12 -9 4 -12 0 -8 -14 9 -38 -75 -191 -98
-177 -14 9 -11 106 6 160 16 55 17 52 -9 57 -16 2 -25 -10 -47 -70 -53 -143
-82 -158 -87 -43 -2 56 2 82 16 112 17 33 17 39 4 44 -21 8 -24 3 -68 -95 -47
-106 -53 -114 -70 -99 -32 27 -24 170 12 199 19 17 18 27 -5 33 -17 4 -26 -9
-56 -82 -33 -78 -67 -131 -85 -131 -13 0 -19 114 -9 162 7 29 19 54 32 63 18
13 19 15 4 21 -31 11 -42 -3 -76 -91 -45 -119 -82 -156 -95 -94 -15 77 1 166
35 198 20 19 20 19 -12 30 -40 14 -39 14 -33 -4 8 -21 -65 -194 -87 -206 -39
-20 -51 65 -24 159 9 28 22 58 30 65 12 13 11 16 -8 21 -30 8 -37 7 -35 -1 4
-16 -57 -164 -79 -191 -31 -38 -45 -19 -46 61 -1 65 25 147 45 147 5 0 6 5 3
10 -3 6 -14 10 -25 10 -13 0 -27 -21 -51 -81 -19 -44 -45 -92 -58 -107 -23
-25 -25 -26 -32 -7 -4 11 -8 50 -8 86 -1 54 3 73 23 102 l24 35 -23 4 c-19 4
-26 -3 -44 -47 -31 -74 -80 -150 -91 -139 -13 13 -15 77 -6 157 11 96 -12 91
-54 -12 -35 -88 -63 -124 -74 -96 -19 51 3 181 32 187 9 2 -7 9 -36 14 -43 9
-50 9 -41 -2 6 -7 8 -23 4 -36 -10 -32 -65 -118 -76 -118 -15 0 -11 133 6 157
14 19 13 21 -10 25 -21 5 -30 -4 -66 -66z m-26 -254 c4 9 6 9 6 1 2 -23 -18
-23 -29 -1 -10 21 -10 22 3 5 11 -14 16 -15 20 -5z m128 -59 c7 -10 9 -15 4
-10 -4 4 -19 -3 -32 -15 -17 -16 -22 -18 -18 -6 4 9 13 19 21 22 9 3 12 10 9
16 -10 17 2 11 16 -7z m166 -18 c0 -8 -4 -12 -9 -9 -5 3 -6 10 -3 15 9 13 12
11 12 -6z m1380 -56 c4 -14 12 -19 24 -16 24 6 25 -13 2 -61 -21 -46 -34 -55
-52 -38 -10 11 -11 29 -6 75 7 61 22 80 32 40z m-2307 -52 c0 -2 -8 -3 -18 -3
-10 0 -19 6 -19 13 0 8 6 9 19 2 10 -5 18 -11 18 -12z m991 -14 c-12 -20 -14
-14 -5 12 4 9 9 14 11 11 3 -2 0 -13 -6 -23z m179 18 c0 -5 -8 -15 -17 -22
-16 -12 -17 -12 -6 2 7 9 10 19 6 22 -3 4 -1 7 5 7 7 0 12 -4 12 -9z m1291
-20 l20 24 -7 -25 c-13 -46 -22 -66 -38 -79 -14 -11 -17 -10 -25 10 -4 14 -4
37 0 54 5 16 9 32 10 35 0 3 5 -6 10 -19 l9 -23 21 23z m-2441 -1 c-8 -5 -19
-10 -25 -10 -5 0 -3 5 5 10 8 5 20 10 25 10 6 0 3 -5 -5 -10z m900 -11 c0 -6
-4 -7 -10 -4 -5 3 -10 11 -10 16 0 6 5 7 10 4 6 -3 10 -11 10 -16z m-113 -11
c-3 -8 -6 -5 -6 6 -1 11 2 17 5 13 3 -3 4 -12 1 -19z m390 -14 c-3 -4 -2 -14
3 -24 6 -12 5 -17 -4 -17 -7 0 -11 10 -10 21 3 27 3 26 11 26 3 0 3 -3 0 -6z
m-226 -41 c13 -16 12 -17 -3 -4 -17 13 -22 21 -14 21 2 0 10 -8 17 -17z m116
-59 c-3 -3 -12 -4 -19 -1 -8 3 -5 6 6 6 11 1 17 -2 13 -5z m491 -49 c-3 -3 -9
2 -12 12 -6 14 -5 15 5 6 7 -7 10 -15 7 -18z m-358 -29 c0 -2 -8 -10 -17 -17
-16 -13 -17 -12 -4 4 13 16 21 21 21 13z m-753 -31 c-33 -29 -58 -34 -33 -6
13 15 14 20 4 24 -7 3 3 6 22 6 l35 0 -28 -24z m1136 10 c-3 -9 -8 -14 -10
-11 -3 3 -2 9 2 15 9 16 15 13 8 -4z m-1206 -7 c-26 -9 -27 -11 -10 -25 17
-14 17 -14 0 -9 -10 3 -31 6 -45 7 -25 1 -24 2 13 20 22 10 47 18 55 18 8 0 2
-5 -13 -11z m1630 -10 c-3 -8 -6 -5 -6 6 -1 11 2 17 5 13 3 -3 4 -12 1 -19z
m-36 -21 c-10 -9 -11 -8 -5 6 3 10 9 15 12 12 3 -3 0 -11 -7 -18z m-331 7 c0
-8 -19 -13 -24 -6 -3 5 1 9 9 9 8 0 15 -2 15 -3z m504 -32 c3 -5 -1 -9 -9 -9
-8 0 -12 4 -9 9 3 4 7 8 9 8 2 0 6 -4 9 -8z m-1636 -19 c-7 -38 -151 -79 -193
-55 -17 9 -15 11 13 26 32 16 131 44 165 45 12 1 17 -5 15 -16z m915 -58 c-3
-9 -8 -14 -10 -11 -3 3 -2 9 2 15 9 16 15 13 8 -4z m-1712 -28 c-10 -9 -11 -8
-5 6 3 10 9 15 12 12 3 -3 0 -11 -7 -18z m849 5 c0 -15 -44 -51 -82 -67 -47
-19 -128 -20 -154 -1 -22 17 -29 12 81 50 69 24 155 34 155 18z m1263 -47 c-3
-9 -8 -14 -10 -11 -3 3 -2 9 2 15 9 16 15 13 8 -4z m-268 -5 c3 -5 1 -10 -4
-10 -6 0 -11 5 -11 10 0 6 2 10 4 10 3 0 8 -4 11 -10z m-965 -38 c0 -54 -79
-92 -192 -92 -74 0 -86 11 -47 46 16 14 145 49 232 63 4 0 7 -7 7 -17z m-945
-1 c3 -5 2 -12 -3 -15 -5 -3 -9 1 -9 9 0 17 3 19 12 6z m45 -161 c-8 -5 -19
-10 -25 -10 -5 0 -3 5 5 10 8 5 20 10 25 10 6 0 3 -5 -5 -10z m143 -15 c4 -8
3 -16 -1 -19 -4 -3 -9 4 -9 15 -2 23 3 25 10 4z m-249 -86 c-3 -5 -10 -7 -15
-3 -5 3 -7 10 -3 15 3 5 10 7 15 3 5 -3 7 -10 3 -15z m-33 -53 c-6 -7 -7 -17
-3 -21 4 -5 2 -5 -5 -2 -9 6 -10 18 -4 45 1 2 6 0 11 -3 8 -5 8 -11 1 -19z
m113 -85 c3 -5 -1 -14 -8 -20 -12 -10 -14 -9 -11 6 2 10 4 19 4 21 2 5 10 2
15 -7z m-14 -45 c0 -2 -8 -10 -17 -17 -16 -13 -17 -12 -4 4 13 16 21 21 21 13z
m67 -32 c-3 -3 -12 -4 -19 -1 -8 3 -5 6 6 6 11 1 17 -2 13 -5z m-352 -43 c3
-5 2 -12 -3 -15 -5 -3 -9 1 -9 9 0 17 3 19 12 6z m310 -69 c-3 -3 -11 0 -18 7
-9 10 -8 11 6 5 10 -3 15 -9 12 -12z m-162 -45 c4 3 7 4 7 1 0 -3 -8 -12 -17
-19 -10 -7 -15 -9 -11 -5 4 5 2 16 -5 25 -10 14 -10 14 4 4 9 -7 19 -10 22 -6z
m-190 -32 c-3 -9 -8 -14 -10 -11 -3 3 -2 9 2 15 9 16 15 13 8 -4z"/>
<path d="M2750 4177 l-25 -11 27 -4 c15 -2 38 4 50 12 l22 16 -24 -1 c-14 0
-36 -5 -50 -12z"/>
<path d="M2793 4089 c-38 -11 -44 -29 -10 -29 22 1 57 21 57 34 0 7 -6 7 -47
-5z"/>
<path d="M2815 3993 c-11 -3 -24 -9 -29 -14 -17 -15 49 -10 70 6 19 14 19 14
-1 14 -11 -1 -29 -3 -40 -6z"/>
<path d="M4395 4670 c3 -5 10 -10 16 -10 5 0 9 5 9 10 0 6 -7 10 -16 10 -8 0
-12 -4 -9 -10z"/>
<path d="M4810 4273 c-310 -278 -524 -424 -915 -623 -449 -228 -959 -383
-1526 -464 -301 -43 -420 -51 -734 -51 -318 1 -441 14 -621 65 -38 11 -74 20
-80 20 -12 0 -90 -241 -134 -416 -78 -311 -105 -512 -104 -794 1 -203 4 -237
28 -353 78 -377 242 -635 522 -823 529 -354 1418 -349 2339 13 832 328 1522
896 1815 1497 115 234 159 407 167 656 4 141 2 182 -16 283 -63 351 -241 671
-550 990 -46 48 -87 87 -90 86 -3 0 -49 -39 -101 -86z m-400 -819 c51 -50 30
-174 -36 -215 -48 -29 -177 -38 -222 -15 -39 20 -52 44 -52 93 1 63 31 117 81
142 37 18 57 22 126 19 68 -2 86 -7 103 -24z m-1027 -155 c30 -8 37 -14 32
-27 -51 -134 -141 -638 -150 -846 -5 -121 -5 -121 11 -76 141 391 218 547 320
645 56 55 109 72 170 55 49 -14 100 -59 107 -96 2 -14 -8 -82 -24 -152 -49
-225 -73 -444 -53 -496 8 -20 33 -20 61 -1 19 13 22 13 27 0 3 -8 0 -15 -6
-15 -7 0 -6 -5 2 -15 7 -9 8 -15 2 -15 -12 0 -10 -26 3 -37 4 -4 5 -2 0 6 -6
10 -4 12 5 6 17 -10 -47 -69 -99 -91 -100 -42 -207 16 -246 136 -21 65 -37
223 -30 305 6 65 5 68 -9 44 -8 -14 -29 -61 -46 -105 -18 -43 -37 -90 -43
-104 -5 -14 -9 -29 -8 -33 1 -5 -3 -6 -8 -3 -5 3 -14 -1 -21 -9 -16 -19 -22
-77 -7 -68 6 4 8 0 5 -9 -4 -8 -23 -67 -43 -131 -40 -124 -51 -137 -118 -137
-88 0 -154 49 -187 139 -34 88 -52 249 -45 381 12 217 54 541 85 652 12 42 56
81 110 96 47 14 156 14 203 1z m1554 -43 c90 -46 140 -143 130 -252 -7 -73
-23 -117 -62 -162 -52 -62 -186 -108 -236 -81 -22 11 -22 11 -16 -62 7 -84 30
-160 55 -182 31 -26 82 -38 122 -27 53 14 116 63 151 118 19 29 28 37 24 22
-4 -14 -13 -31 -19 -39 -8 -11 -8 -13 2 -7 12 7 16 -4 12 -33 -1 -9 4 -12 17
-7 16 5 16 5 -1 -9 -11 -8 -16 -15 -11 -15 16 0 -79 -90 -120 -114 -96 -57
-260 -74 -340 -37 -181 84 -250 415 -139 670 69 157 197 247 339 238 34 -3 75
-12 92 -21z m-591 -117 c24 -6 44 -12 44 -13 0 0 -9 -26 -21 -56 -28 -73 -75
-274 -94 -398 -18 -122 -20 -273 -3 -290 14 -14 45 0 74 35 16 19 24 22 29 13
6 -9 4 -11 -5 -5 -10 6 -12 1 -8 -19 3 -14 1 -26 -5 -26 -5 0 -3 -8 4 -17 9
-11 10 -14 2 -9 -9 5 -11 2 -7 -9 5 -13 9 -13 22 -3 9 7 4 -3 -11 -23 -68 -90
-172 -122 -256 -80 -48 25 -72 59 -103 151 -32 90 -31 317 0 503 25 147 40
189 76 212 63 41 174 56 262 34z m-2401 -158 c144 -65 192 -296 73 -357 -72
-37 -183 -53 -246 -36 -21 7 -20 9 23 51 61 59 107 154 103 212 l-3 44 -38 -2
c-153 -9 -362 -291 -317 -427 16 -48 41 -60 152 -74 106 -13 174 -35 258 -84
l55 -32 -90 -13 c-177 -26 -293 -81 -406 -193 -148 -146 -210 -346 -164 -525
86 -328 491 -438 976 -265 125 45 264 116 529 273 419 248 472 276 606 315
107 32 191 45 409 63 77 6 154 17 171 25 17 8 41 33 55 56 47 80 98 127 153
142 45 13 325 32 416 28 45 -1 75 -18 90 -51 15 -33 29 -177 30 -299 0 -89 -1
-95 -28 -122 -32 -32 -46 -34 -314 -50 -195 -13 -204 -10 -291 69 -77 69 -119
88 -223 102 -163 21 -324 -7 -490 -85 -109 -52 -205 -113 -409 -261 -386 -279
-757 -503 -953 -575 -352 -128 -719 -43 -948 220 -152 175 -222 381 -211 620
5 128 27 204 88 307 46 76 150 179 232 229 l67 41 -37 24 c-56 37 -78 88 -78
184 1 68 5 88 28 133 74 141 235 252 447 307 118 30 227 33 285 6z m819 -135
c81 -34 126 -147 133 -336 8 -201 -40 -360 -140 -462 -101 -104 -279 -137
-352 -64 l-23 23 -30 -125 c-49 -200 -129 -341 -228 -402 -40 -25 -134 -42
-186 -34 -33 6 -36 8 -22 19 14 9 14 14 4 20 -9 6 -11 4 -5 -5 5 -9 4 -11 -4
-6 -9 6 -9 11 0 22 6 8 9 15 5 15 -3 1 -9 2 -13 3 -5 1 -13 4 -19 8 -6 4 -30
9 -52 10 -24 2 -44 9 -47 17 -4 9 0 11 12 6 67 -25 109 -18 162 30 102 93 155
357 168 838 7 285 10 296 86 336 56 28 158 39 211 21 37 -12 38 -13 34 -56 -2
-24 -2 -44 -2 -44 1 0 16 21 32 48 32 49 83 102 117 120 28 16 119 15 159 -2z
m1166 -580 c0 -2 -8 -10 -17 -17 -16 -13 -17 -12 -4 4 13 16 21 21 21 13z"/>
<path d="M4853 3068 c-28 -31 -58 -93 -73 -148 -6 -25 -13 -53 -16 -62 -5 -15
0 -17 28 -11 92 18 147 67 155 136 10 87 -46 137 -94 85z"/>
<path d="M5080 2509 c0 -5 5 -7 10 -4 6 3 10 8 10 11 0 2 -4 4 -10 4 -5 0 -10
-5 -10 -11z"/>
<path d="M2501 2614 c-51 -65 -84 -234 -79 -414 3 -125 4 -133 27 -151 21 -17
26 -18 45 -6 66 44 109 193 109 387 0 150 -14 203 -54 208 -19 2 -33 -4 -48
-24z"/>
<path d="M1352 3967 l-21 -23 65 -42 c94 -62 110 -52 45 26 -28 34 -55 62 -60
62 -4 0 -17 -10 -29 -23z"/>
<path d="M2835 3893 c-27 -9 -44 -18 -37 -20 18 -7 102 17 102 28 0 11 -5 11
-65 -8z"/>
<path d="M1194 3795 c-54 -59 -160 -165 -235 -236 -96 -89 -134 -131 -126
-137 36 -29 212 -100 222 -90 2 2 -13 14 -33 28 -183 120 -94 154 97 37 l64
-39 -44 52 c-87 101 -110 134 -107 154 4 30 37 23 137 -31 l84 -45 -34 42
c-71 86 -89 114 -89 138 0 23 3 24 38 20 20 -3 64 -21 97 -41 33 -19 62 -34
64 -32 1 2 -14 22 -35 45 -52 56 -74 91 -74 118 0 19 5 22 38 22 35 0 61 -12
160 -74 27 -17 -5 28 -53 74 -26 25 -53 58 -60 73 l-12 28 -99 -106z"/>
<path d="M2870 3798 c-54 -15 -57 -26 -5 -18 25 4 51 12 57 18 15 15 -1 15
-52 0z"/>
<path d="M2910 3706 c-71 -20 -79 -26 -26 -22 26 2 55 11 64 20 9 9 14 16 12
15 -3 0 -25 -6 -50 -13z"/>
<path d="M2917 3605 c-60 -17 -70 -25 -28 -25 31 0 101 24 101 34 0 8 -18 6
-73 -9z"/>
<path d="M2943 3512 c-71 -17 -82 -32 -25 -32 32 0 102 31 102 45 0 6 -2 6
-77 -13z"/>
<path d="M1083 3335 c15 -14 38 -25 50 -25 17 0 12 6 -22 25 -54 31 -64 31
-28 0z"/>
<path d="M5567 2479 c-121 -247 -336 -542 -577 -792 -551 -573 -1310 -992
-2072 -1147 -322 -65 -679 -82 -953 -46 -222 30 -459 98 -620 178 -367 184
-591 463 -695 865 -54 210 -61 447 -25 748 l5 40 -15 -45 c-58 -171 -93 -488
-75 -688 39 -467 233 -817 595 -1077 270 -193 658 -305 1065 -305 600 0 1306
239 1945 657 681 447 1223 1042 1435 1578 32 80 61 168 57 171 -1 1 -32 -61
-70 -137z"/>
</g>
</svg>
