<?xml version="1.0" encoding="utf-8"?>
<!-- Generator: Adobe Illustrator 25.2.3, SVG Export Plug-In . SVG Version: 6.00 Build 0)  -->
<svg version="1.1"
	 id="Calque_1" xmlns:cc="http://creativecommons.org/ns#" xmlns:dc="http://purl.org/dc/elements/1.1/" xmlns:rdf="http://www.w3.org/1999/02/22-rdf-syntax-ns#" xmlns:svg="http://www.w3.org/2000/svg"
	 xmlns="http://www.w3.org/2000/svg" xmlns:xlink="http://www.w3.org/1999/xlink" x="0px" y="0px" viewBox="0 0 324 324"
	 style="enable-background:new 0 0 324 324;" xml:space="preserve">
<path id="path837" d="M78.1,310.4c-1.3-0.1-4.7-0.4-7.4-0.7c-4.8-0.6-5.4-0.7-10.3-3c-11-5-14.2-8.3-15.6-15.9
	c-0.9-4.6,0.8-9.8,4.5-14.1c4-4.6,11.6-8.9,17.8-10c5.1-0.9,6.4-0.7,6.4,1.3c0,1.2-0.9,1.6-5,2.3c-5.7,1-13,5-16.2,8.7
	c-3.8,4.6-4.7,8.5-3.1,13.8c0.8,2.7,1.1,3.2,4.1,6.1c5.9,5.9,12.4,8.1,23.2,8.1c8.8,0,17-1.6,21.4-4c3.7-2.1,6.2-6.6,6.2-11.3
	c0-2.9-0.5-4.5-2.5-8.6c-2.6-5-5.5-7.9-8.2-7.9c-1.4,0-2.9-1-2.9-2c0-0.9,1.4-2,2.6-2c0.5,0,1.8,0.3,3,0.6c2.7,0.8,5.5,3.6,8.1,8
	c3.7,6.5,4.7,11.7,3.1,16.8c-2.4,7.7-8.2,11.7-19.5,13.4C84.2,310.7,83.4,310.7,78.1,310.4L78.1,310.4z M228.6,306.2
	c-3.9-1.1-8.5-5.3-10.6-9.6c-1.3-2.6-1.3-3-1.3-7.2c0-3.7,0.2-5,1-7.8c2-6.3,5.4-11.7,10-15.7c1.6-1.4,3.1-2.5,3.3-2.5
	c0.2,0,0.8,0.4,1.2,0.8c1.2,1.2,0.7,2.2-2.1,4.8c-2.9,2.6-6.5,8-8,12c-0.9,2.4-1.2,3.7-1.3,7.4c-0.2,4.3-0.1,4.6,0.9,6.7
	c2,4.2,5.8,7.1,9.9,7.7c5.2,0.7,15.5-0.8,19.9-3c11.3-5.7,17.8-10.7,21.8-17c2.1-3.2,2.5-4.6,2.3-8.3c-0.1-2.5-0.4-3.6-1.5-5.7
	c-1.7-3.4-3.9-5.3-9.5-8.1c-3.8-1.9-4.8-2.2-6.8-2.3c-1.6,0-2.7,0.2-3.4,0.7c-0.6,0.4-1.6,0.7-2.3,0.7c-0.9,0-1.3-0.2-1.4-1
	c-0.3-1.4,0-2.1,1.5-3c2.3-1.4,5.2-1.8,8.2-1c3.7,0.9,9.5,3.9,12.5,6.4c4.7,3.9,6.5,7.8,6.5,14.5c0,4.1,0,4.2-1.5,7
	c-1.8,3.4-5.8,8.2-9.3,11c-2.7,2.3-8.5,5.8-14.7,9c-3.5,1.8-4.7,2.2-8.7,2.9C239.1,306.6,231.1,306.9,228.6,306.2L228.6,306.2z
	 M75.5,294.9c-2-0.4-6.6-2.9-8.4-4.4c-2.2-2-3.1-3.8-3.1-6.1c0-2.1,0.9-3.5,2.1-3.5c1.4,0,1.8,0.8,1.8,3c0,1.8,0.2,2.2,1.5,3.5
	c0.8,0.8,2.6,2,4.1,2.7c2.4,1.1,3,1.2,6.6,1.3c2.2,0,4.6-0.1,5.4-0.3c1.9-0.4,3.4,0.7,3,2.2c-0.1,0.6-0.6,1.1-1,1.3
	C86.7,294.9,76.9,295.2,75.5,294.9L75.5,294.9z M238.5,287.5c-2.6-0.7-4.1-1.9-5.1-4c-0.7-1.5-0.8-2-0.4-2.8c0.4-0.8,0.7-1,1.7-0.9
	c1,0.1,1.5,0.4,2.1,1.6c1.1,2.1,3.2,2.9,7.2,2.6c3.8-0.3,7.7-2.1,11.2-5.2c2.5-2.3,3.1-2.5,4.4-1.8c1.3,0.7,1,2.2-0.7,3.8
	C252.6,286.7,244.9,289.2,238.5,287.5L238.5,287.5z M83,283.7c-0.4-0.4-0.7-1.1-0.7-1.5c0-1.7,2.5-10.7,5.1-18.7
	c1.8-5.3,3.2-10.4,3.8-13.9c0.6-3,1.6-7.7,2.4-10.3c0.7-2.6,1.5-5.7,1.8-6.8c0.2-1.1,0.7-2.4,1-2.9c0.7-1.1,2.4-1.2,3-0.1
	c0.5,0.9,0.3,2.1-1.8,9.7c-0.7,2.6-1.7,6.8-2.2,9.3c-1,5.6-2.2,9.7-4.8,17.4c-2,5.9-3.5,11.1-4.3,15.3
	C85.7,284.3,84.3,285.3,83,283.7L83,283.7z M75.1,279.3c-0.8-1.5,0.8-9.4,5.3-26.1c0.8-2.8,2.2-8.8,3.2-13.3c1-4.5,2.1-8.8,2.3-9.7
	c4.1-12.7,6.8-41.4,5-52.9c-0.6-4.1-1.4-5.8-5.8-12.4c-4.3-6.5-5.6-8.9-7.3-14.1c-2.1-6.5-3.2-11.7-3.7-18
	c-0.5-6.2-0.3-15.9,0.4-18.8c0.2-0.9,0.7-3.5,1-5.7c0.3-2.2,1.4-6.7,2.4-9.9c1-3.2,2-6.8,2.2-8c1.2-5.3,4.6-14.8,7-19.5
	c2.9-5.7,3.5-6.3,9.8-9.3c4.5-2.2,7.8-2.9,16.3-3.4c7.8-0.5,20.9,0.3,25.7,1.6c1.7,0.4,3.3,0.8,3.7,0.8s2.1-1.1,4-2.5
	c10.3-7.7,21.1-13,32.3-15.9c3.6-0.9,4.7-1.1,7.8-0.9c5.8,0.3,9.7,2,10.9,4.6c0.5,1,0.8,1.3,1.9,1.3c1.1,0,1.6,0.4,3.8,3
	c1.4,1.7,3.3,3.9,4.2,5c0.9,1.1,2.1,3,2.5,4.4c0.5,1.3,1.5,3.4,2.3,4.6c1.3,2,2.3,3.7,5.1,8.6c2,3.6,4.8,9.3,5.3,10.7
	c0.3,0.9,1.1,3,1.8,4.8c3,7.3,6.1,22.5,6.9,34.6c0.8,10.5-0.7,15.9-8.6,31.6c-3.5,7-4.6,10.2-4.6,14.1c0,2.6,0.3,3.8,3,11.6
	c1.7,4.8,3.6,10.6,4.3,12.9c0.7,2.3,2,6.3,3,8.9c1.8,4.9,1.8,6.4,0.4,6.8c-1.8,0.6-2.3-0.1-3.9-4.9c-0.9-2.6-1.9-5.5-2.2-6.4
	c-0.3-1-1.6-4.7-2.8-8.4c-1.2-3.6-3-8.9-4-11.8c-3.1-8.9-2.6-12.8,3-24.3c8.2-16.8,9-20,8.3-30.1c-0.4-4.9-1.8-15.2-2.7-19.3
	l-0.3-1.4l-1.7,3.2c-2.1,3.9-2.7,4.6-4,4.6c-0.9,0-1.2,0.3-2.2,2.2c-1.3,2.8-4.9,7.3-7.8,9.9c-3.2,2.9-11.1,8-16.1,10.4
	c-6,2.9-18.3,6-22.9,5.6c-1.4-0.1-1-0.2,2.4-0.8c3.8-0.6,8.7-1.8,13.7-3.3c3-0.9,9.8-4.2,12.8-6.3c3-2,9.4-7.7,12.1-10.8
	c3.1-3.5,7.4-9.8,9.3-13.6c1.7-3.4,1.9-3.7,2.8-3.5c0.8,0.2,0.9,0.1,0.8-0.5c-0.1-0.4-0.5-1.9-0.9-3.3c-0.3-1.4-1.1-3.7-1.7-5.2
	c-0.6-1.4-1.7-4.3-2.5-6.4c-1.4-3.7-5.8-11.9-9.6-17.9c-1-1.6-2.3-4-2.8-5.3c-0.8-2.2-2.3-4.2-6.9-9.5c-1.7-2-2.1-2.2-3.4-2.1
	c-1.3,0.1-1.5,0.3-2.1,1.6c-0.4,0.8-0.8,2.4-0.9,3.4c-0.3,2.1-2.2,5-6,9.3c-6.6,7.4-12.7,12.5-18.1,15.2c-1.6,0.8-3.3,1.8-3.6,2.1
	c-1.2,1.3-9,3.5-12.7,3.6c-1.4,0-4-0.3-5.7-0.7c-2.5-0.6-3.2-0.6-3.9-0.2c-1,0.6-1.3,0.6-1.1-0.1c0.2-0.4-0.4-0.7-2.2-1
	c-1.7-0.3-2.8-0.8-3.8-1.7c-1.3-1.2-1.5-1.2-1.9-0.6c-0.4,0.5-0.4,1-0.2,1.9c0.2,0.6,0.5,1.7,0.7,2.4c0.2,0.7,0.2,1.3,0,1.4
	c-0.2,0.1-0.3,1-0.1,2.1c0.4,2.4,3.5,13.3,4.9,17.4c0.6,1.7,1.8,5.4,2.6,8.2c0.8,2.7,2.2,6.6,3.1,8.5c0.9,2,2.3,4.8,3,6.4
	c1.8,3.9,3.5,6.5,4.8,7.2c1.9,1,6.6,1.8,10.5,1.8c2.5,0,3.8,0.1,3.8,0.4c0,0.8-8.9,0.2-11.6-0.7c-2.2-0.8-2.4-0.7-1.3,0.7
	c0.3,0.3,0.6,1,0.7,1.6c0.7,3,9,11.9,16.2,17.5c4.1,3.2,7,4.8,13.2,7.2c5.6,2.2,9.2,4.2,11.5,6.2c3.3,3,10.3,12.5,13.7,18.6
	c0.6,1.1,2.1,3.8,3.3,6c2.6,4.7,7.6,15.1,9.3,19.3c0.7,1.6,1.9,5,2.7,7.6c1.4,4.3,3.1,8.7,5.5,14.9c0.6,1.5,2.6,7.1,4.4,12.4
	c3.6,10.7,5.5,15.9,7.3,19.3c0.8,1.6,1.1,2.6,0.9,3.3c-0.3,1.3-1.6,2-2.6,1.4c-1.5-0.8-4.7-8.6-9.6-23.1c-1.6-4.7-4.2-12-5.9-16.3
	c-1.6-4.2-3.6-9.7-4.4-12.1c-2.2-7.1-7.7-18.7-13.9-29.7c-3-5.3-4-6.8-7.8-11.9c-5.3-7.2-7.2-8.7-15.8-12.1
	c-6.2-2.5-10.3-4.7-14.3-7.8c-4.5-3.4-11-9.7-13.6-13.1c-1.2-1.5-2.2-2.8-2.3-2.8c-0.1,0-0.8,1.2-1.5,2.8c-2.1,4.6-6.1,11.3-8.3,14
	c-3.6,4.4-7.6,7.2-19.5,14.1c-3.1,1.8-6.6,4.1-7.7,5.1c-3.7,3.4-4.1,4.3-7.2,15.9c-1.5,5.8-2.8,10.7-3,10.9
	c-0.1,0.2-0.9,3.1-1.8,6.5c-1.9,7.5-2.1,7.8-3.6,7.8c-1.8,0-2.2-1.3-1.4-3.8c0.3-1.1,1.1-3.8,1.6-6.2c0.5-2.3,1.3-4.9,1.6-5.8
	c0.3-0.8,1.8-6,3.2-11.6c2.3-8.8,2.8-10.3,4.2-12.3c2.5-3.6,5.9-6.3,14-10.8c9.9-5.6,15.5-10,18.9-15.1c2.1-3.2,7.8-14.4,7.8-15.4
	c0-0.4-1.1-2.4-2.4-4.4c-1.3-2.1-2.9-4.8-3.4-6.2s-1.7-4-2.6-5.8c-0.9-1.9-2.3-5.7-3.2-8.5c-0.9-2.8-2.2-6.8-2.9-8.8
	c-1.8-4.9-4.4-14.1-5.1-18.5l-0.3-1.5l-2.3,0.2c-5.6,0.6-15.4-1.4-20.4-4.1c-6.6-3.6-13.1-9.4-13.9-12.4c-0.4-1.4-0.5-1.6-1.1-1.2
	c-1.8,1.1-6.6,13.5-8.6,21.8c-0.4,1.6-1.4,5.3-2.3,8.1c-0.9,2.8-1.9,7.1-2.3,9.5s-0.9,5.2-1.1,6.2c-0.2,1.1-0.2,2.1,0,2.5
	c0.2,0.4,0.2,0.6-0.1,0.6c-0.6,0-0.6,12.9,0,17.7c0.5,4.1,1.5,8.3,3.2,13.7c1.6,5,2.5,6.7,6.8,13c6,8.9,6.6,10.7,6.9,22.6
	c0.5,14.5-2,34.9-5.6,46.3c-0.3,1-1.3,5.1-2.2,9.1c-0.9,4-2.4,10.4-3.4,14.1c-3.2,11.9-4.1,15.9-4.8,19.9c-0.4,2.3-0.9,4.3-1.2,4.7
	C77.2,280.3,75.7,280.3,75.1,279.3L75.1,279.3z M129.7,81.3c-0.2-3.6,3.2-10.7,7.3-15.1l2.1-2.3l-1.3-0.5c-0.7-0.3-4.7-0.7-8.9-1.1
	c-8.5-0.7-18.6-0.5-23.8,0.5c-3,0.6-9,3-9,3.6c0,0.2,0.3,0.7,0.6,1.1c0.3,0.4,0.6,1.2,0.6,1.7c0,1.2,1.5,2.9,5.4,5.9
	c4.3,3.4,9.1,5.9,13.1,6.9c4.2,1.1,4.9,1.1,9.7,1.1l4.2,0L129.7,81.3z M113,71.5c-0.6-0.4-0.9-1-0.9-1.7l0-1.1l0.5,0.9
	c0.5,0.9,0.5,0.9,0.9-0.4c0.3-1,0.7-1.3,1.4-1.3c1.3,0,1.9,2.4,0.8,3.5C114.8,72.3,114.1,72.3,113,71.5L113,71.5z M159.5,78.8
	c7.3-2,12.8-5.6,20.7-13.5c6.7-6.7,8.7-9.5,9.7-13.4c1.2-4.7,1.2-4.7,2.4-4.9c0.8-0.1,1-0.3,0.7-0.5c-1.1-0.7-4.8-1.4-7.2-1.4
	c-4.1,0-15.7,3.4-20.3,6c-1.2,0.7-2.7,1.5-3.4,1.9c-0.7,0.4-2.3,1.3-3.6,2c-3.2,1.8-9,5.7-9.7,6.5c-0.3,0.4-0.4,0.8-0.3,0.9
	c0.4,0.4-3.2,2.9-4,2.7c-0.6-0.1-1.5,0.6-3.7,3c-3.2,3.4-6.1,8-5,8c0.3,0,1.3,0.6,2.2,1.4c0.9,0.7,2.2,1.5,2.9,1.6
	C145.8,80.2,155,80.1,159.5,78.8L159.5,78.8z M151.8,73.4c-0.8-0.8-0.9-3.3-0.2-4c0.8-0.8,1.5-0.5,2.3,0.8
	C155.4,72.7,153.6,75.4,151.8,73.4z M153.5,72.5c0-0.2-0.2-0.4-0.4-0.4c-0.2,0-0.5,0.2-0.6,0.4c-0.1,0.2,0,0.4,0.4,0.4
	C153.2,72.9,153.5,72.7,153.5,72.5z M161.4,60.8c0-1,0.2-1.8,0.4-1.8c0.2,0,0.4-0.3,0.4-0.6c0-0.9,0.7-0.7,0.9,0.2
	c0.1,0.4,0.7,1,1.2,1.2c1.3,0.5,1.3,1.1-0.1,1.7c-0.6,0.2-1.4,0.6-1.8,0.8C161.5,62.8,161.4,62.7,161.4,60.8L161.4,60.8z
	 M143.3,273.1c0.2-4,1.6-6.7,5.4-10.5c3.1-3.1,9-7.6,14.5-11c6.9-4.3,7.6-4.8,7.6-5.2c0-0.6-4.9-4.6-7.5-6.1
	c-1.2-0.7-4.6-2.2-7.5-3.4c-6.9-2.8-8.3-3.5-9.6-5c-1.6-1.9-1.4-3.1,0.8-5.2c1-1,3-2.5,4.3-3.4c3.3-2.2,16.6-9.2,21.4-11.3
	c2.1-0.9,3.9-1.8,3.9-2c0-0.4-3.5-1.9-7.7-3.2c-5-1.6-10.7-2.4-19.1-2.8c-8.4-0.4-12.3-0.9-14.5-1.8c-1.9-0.8-3-2.4-2.6-4.1
	c0.4-2,6.8-6.9,15.5-11.8c10.4-5.9,14.2-8.7,14.7-10.9c0.2-0.9-0.1-1.4-3-4.1c-3.4-3.1-5.1-5.4-5.1-6.8c0-0.5,0.4-0.1,1.2,1.3
	c0.7,1.2,2.2,2.9,3.8,4.1c4.5,3.5,5.1,5.3,3,8.3c-1.3,1.8-5.5,4.9-9.6,7.1c-4.5,2.5-12,7-14,8.5c-8.5,6.4-6.9,7.9,8.8,8.8
	c11,0.6,14.5,1.1,21.3,3c9.4,2.7,11,4.8,5.7,7.2c-4.2,1.9-13.8,6.7-18.3,9.3c-4.2,2.4-8.1,5.1-9.5,6.7c-1.7,1.9,0.1,3.2,8.7,6.7
	c3,1.2,6.6,2.8,8,3.6c2.3,1.3,7.2,5.1,8.4,6.5c1.2,1.5,0.2,2.7-5.6,6.4c-12.4,7.8-18.2,12.9-20.9,18.3c-0.9,1.8-1.8,3.9-2,4.5
	C143.3,275.5,143.2,275,143.3,273.1z M249.4,272.7c-1.3-0.5-3.9-7.7-7-19.4c-2.2-8.2-3.5-11.9-6-17.8c-1.6-3.7-6.1-17-6.1-18
	c0-1.1,1.5-1.9,2.6-1.4c1,0.4,2,3,4.3,10.3c0.6,1.9,2,5.6,3.2,8.4c2.4,5.7,4,10.4,5.8,17.3c1.4,5.2,4.1,13.7,5.2,16.4
	c0.9,2.1,0.9,3,0.1,3.8C250.8,272.9,250.3,273,249.4,272.7z M101.8,177.5c-0.6-1.2-0.5-2.2,0.2-1.9c0.3,0.1,0.8,0.2,1,0.2
	c0.6,0,0.4,1.4-0.2,2C102.4,178.2,102.2,178.2,101.8,177.5L101.8,177.5z M207.4,172.1c-0.3-0.7,0.1-2.6,0.6-2.6c0.4,0,0.8,2,0.5,2.7
	C208.2,172.9,207.7,172.9,207.4,172.1z M107.4,169.3c0-0.4,0.2-0.6,0.4-0.5c0.2,0.1,0.4,0.3,0.4,0.5c0,0.2-0.2,0.4-0.4,0.5
	C107.5,169.9,107.4,169.7,107.4,169.3z M209.7,168.6c-1.9-2.9,1.7-14.7,6.1-19.9c0.6-0.7,0.9-1,0.7-0.7c-0.2,0.3-0.1,0.8,0.2,1.1
	c0.4,0.5,0.3,0.8-0.3,1.7c-2.6,3.5-4.3,8.6-4.7,14.1C211.4,169.2,210.8,170.3,209.7,168.6L209.7,168.6z M119.4,166.2
	c-0.2-0.6,0.4-1.4,1.1-1.4c0.5,0,0.3,1.1-0.3,1.6C119.8,166.8,119.6,166.7,119.4,166.2z M106.2,165.2c-0.3-0.2-0.6-0.8-0.6-1.4
	c0-0.6-0.2-1-0.3-1c-0.4,0-1.1-2.7-1.1-4.1c0-1.1,0.7-1.4,2.2-0.8c0.5,0.2,0.6,0.3,0.1,0.6c-0.4,0.3-0.2,0.3,0.7,0.2
	c0.7-0.1,1.8,0,2.5,0.3c1,0.4,1.3,0.8,1.3,1.7c0,1.4-1.1,3-1.9,2.7c-0.3-0.1-0.5,0-0.3,0.2c0.1,0.2-0.2,0.8-0.7,1.2
	C107,165.6,106.9,165.7,106.2,165.2L106.2,165.2z M97.4,163c0-0.6,0.6-1.1,0.9-0.8c0.3,0.3-0.1,1.3-0.6,1.3
	C97.6,163.6,97.4,163.3,97.4,163z M206.4,160.1c0.1-1.4,0.3-1.9,0.7-1.9c0.8,0,1,1.7,0.4,2.8C206.7,162.5,206.3,162.1,206.4,160.1
	L206.4,160.1z M191.7,159.2c0-0.6,0.3-1.4,0.6-1.7c0.5-0.4,0.8-0.3,1.6,0.6c1,1.1,0.9,2.1-0.1,1.7c-0.3-0.1-0.6,0-0.6,0.2
	c0,0.2-0.4,0.4-0.8,0.4C191.8,160.4,191.7,160.1,191.7,159.2L191.7,159.2z M130.8,159.3c-0.5-1-0.6-2-0.1-2c1.5,0,2.2,1.4,1.1,2.4
	C131.4,160,131.2,159.9,130.8,159.3L130.8,159.3z M117.4,159.1c-0.3-0.3-0.5-0.7-0.5-1c0-0.3-0.2-0.7-0.5-1c-0.7-0.7-0.4-3,0.4-3.3
	c0.7-0.3,3.2,0.5,4.2,1.3c1,0.8,0.9,1.9-0.5,3.3C119.3,159.7,118.2,159.9,117.4,159.1L117.4,159.1z M89.7,157.5
	c-0.5-0.9-1.3-2.4-1.7-3.3c-0.4-0.9-1.4-3.2-2.4-5.2c-1.6-3.3-2.2-5.2-2.7-8.4c-0.1-0.7,0-1.3,0.2-1.3c0.2,0,0.4,0.2,0.4,0.5
	c0,0.3,0.3,0.8,0.6,1c0.3,0.3,0.9,1.4,1.2,2.5c0.4,1.1,1.2,3.1,2,4.4c0.7,1.3,2,3.6,2.8,5.2c0.8,1.5,1.7,3,1.9,3.3
	c0.5,0.6,0,1.4-0.7,1.2c-0.4-0.2-0.5,0-0.2,0.8C91.7,159.8,90.8,159.4,89.7,157.5L89.7,157.5z M95.4,156.4c0-0.5,0.2-0.7,0.4-0.6
	c0.2,0.1,0.4,0.5,0.4,0.8c0,0.3-0.2,0.6-0.4,0.6C95.6,157.2,95.4,156.8,95.4,156.4z M203.1,154.1c-0.2-2.1,0-3.4,0.6-3.2
	c0.3,0.1,0.5,0.5,0.6,1c0.2,1.1,0.9,0.7,0.9-0.6c0-1.1,0.7-1.3,1.1-0.4c0.4,1-0.7,3-1.5,3c-0.4,0-0.7,0.3-0.7,0.6
	C204,155.9,203.3,155.5,203.1,154.1L203.1,154.1z M175.8,154.5c-1.2-0.2-1.9-1.6-1.3-2.3c0.4-0.5,0.7-0.4,1.8,0.8
	C178.2,154.9,178.2,155,175.8,154.5L175.8,154.5z M108.8,153c-0.5-0.5-0.3-1.6,0.3-2.1c0.5-0.4,0.7-0.3,1,0.6c0.6,1.5,0.5,2-0.2,1.4
	c-0.4-0.3-0.6-0.3-0.7,0C109.2,153.1,109,153.2,108.8,153L108.8,153z M129.5,152.6c-0.4-1.2-0.2-1.8,0.6-1.8c1,0,1.4,1,0.8,1.8
	C130.2,153.4,129.8,153.4,129.5,152.6L129.5,152.6z M183.7,151.2c0-1,0.9-0.8,1.1,0.2c0.1,0.4-0.1,0.7-0.5,0.7
	C184,152,183.7,151.7,183.7,151.2L183.7,151.2z M119.3,150.8c0-0.3-0.4-1.2-0.8-2.1c-0.9-1.8-0.6-2.6,0.9-1.9
	c0.8,0.4,0.9,0.7,0.9,2.3c0,1.1-0.3,2-0.5,2.1C119.5,151.2,119.3,151.1,119.3,150.8z M192.7,148.6c-0.4-0.4-0.3-2.7,0.2-3.4
	c0.3-0.4,0.8-0.6,1.6-0.4c0.9,0.2,1.1,0.4,1.1,1.5C195.6,148,193.7,149.5,192.7,148.6L192.7,148.6z M194,147.1
	c0-0.3-0.2-0.6-0.4-0.6c-0.2,0-0.4,0.3-0.4,0.6c0,0.3,0.2,0.6,0.4,0.6C193.9,147.7,194,147.4,194,147.1z M88.9,146.5
	c-1.2-2.4-0.6-3.3,1.6-2.3c1.2,0.6,1.3,1.9,0.3,2.9C89.7,147.9,89.6,147.9,88.9,146.5z M99.9,146.6c-1.1-1-1.5-2.8-0.7-3.1
	c0.9-0.4,1.9,0.8,2,2.4C101.3,147.4,101.1,147.6,99.9,146.6L99.9,146.6z M210.6,146.9c-0.3-0.6,1.3-3.7,1.9-3.5
	c0.8,0.3,0.8,1.4-0.2,2.7C211.3,147.3,210.9,147.5,210.6,146.9z M174.2,145.8c0-0.6,0.1-1.5,0.2-2c0.2-0.9,0.2-0.9,1.3-0.1l1.1,0.8
	l-0.1-1.4c0-0.7,0.1-1.3,0.3-1.1c0.8,0.5,0,4.9-0.9,4.9c-0.2,0-0.3-0.2-0.1-0.5c0.2-0.4,0.2-0.4-0.3,0
	C174.8,147.2,174.2,147,174.2,145.8L174.2,145.8z M119.5,145.8c-0.4-1.1-0.3-2.1,0.3-2.1c0.8,0,3.4,1.6,3.2,2
	c-0.1,0.2-0.5,0.2-1,0.1c-0.4-0.1-1.1,0-1.6,0.2C119.9,146.4,119.7,146.3,119.5,145.8z M140.5,145.1c-0.3-1.3-0.1-1.6,1-1
	c1,0.5,0.9,1.7-0.1,1.9C141,146.1,140.7,145.8,140.5,145.1L140.5,145.1z M164,145.2c-0.2-0.3,0-0.7,0.4-0.9c0.4-0.3,0.7-0.8,0.7-1.1
	c0-0.9,0.5-0.8,1.3,0.1c0.8,0.9,0.8,1.3,0.1,1.3c-0.3,0-0.8,0.3-1,0.6C164.8,145.8,164.4,145.8,164,145.2L164,145.2z M186.1,143.3
	c0-1.2,1.1-3.2,1.8-3.2c1,0,1.1,1.2,0.4,2.6C187.5,144.3,186.1,144.6,186.1,143.3L186.1,143.3z M204.6,143.8
	c-0.5-0.5-0.3-1.4,0.3-1.2c0.4,0.1,0.7-0.1,0.8-0.6c0.3-1,0.8-0.6,1.1,1c0.2,1,0.2,1.1-0.9,1.1C205.4,144.1,204.8,144,204.6,143.8
	L204.6,143.8z M127.6,143.1c0-0.3,0.3-0.6,0.6-0.6c0.3,0,0.6,0.3,0.6,0.6c0,0.3-0.3,0.6-0.6,0.6
	C127.9,143.7,127.6,143.4,127.6,143.1z M199.1,141.4c-0.5-0.5-0.3-2.7,0.4-3.6c0.6-0.9,0.7-0.9,1.4-0.2c0.6,0.6,0.8,0.6,0.8,0.1
	c0-0.9,1.1-1.7,1.6-1.2c0.9,0.9-1.9,5.3-3.3,5.3C199.6,141.7,199.2,141.6,199.1,141.4L199.1,141.4z M200.8,139.9
	c0.4-0.5,0.4-0.7,0-1.2c-0.6-0.8-1.2-0.4-1.2,0.8C199.6,140.6,200.1,140.8,200.8,139.9L200.8,139.9z M215.9,137.6
	c0-1.8,0.1-2,0.6-1.5c0.4,0.4,0.5,1,0.3,2.1C216.5,140.4,215.9,140,215.9,137.6z M88.3,137.5c0-0.3,0.2-0.6,0.4-0.6s0.4,0.3,0.4,0.6
	c0,0.3-0.2,0.6-0.4,0.6S88.3,137.9,88.3,137.5z M210.3,135.6c0-0.3-0.3-0.5-0.7-0.5c-0.5,0-0.7-0.3-0.8-1c-0.1-1.3,0.8-1.9,1.7-1.1
	c0.7,0.5,0.8,3.2,0.2,3.2C210.5,136.1,210.3,135.9,210.3,135.6L210.3,135.6z M119.1,134.9c-3-0.3-9.2-1.4-17.2-3
	c-5.7-1.1-11.6-3.1-14.7-5c-2.3-1.4-5.7-4.5-7.2-6.6c-0.5-0.7,0.5,0.1,2.2,1.8c3.4,3.4,6.7,5.3,11.8,7c3.4,1.1,9.6,2.4,13.3,2.9
	c1.2,0.1,4.1,0.6,6.4,1c7.5,1.4,19.2,1.5,27.1,0.1c1.2-0.2,1.5-0.1,1.5,0.4c0,0.7-0.8,0.9-5.2,1.5
	C133.7,135.4,123.2,135.4,119.1,134.9L119.1,134.9z M216.5,126.5c-0.1-0.3-0.2-1.1-0.1-1.7c0.1-0.8,0.3-1.1,0.9-1.1
	c0.7,0,0.8,0.3,0.8,1.6c0,1.2-0.2,1.6-0.7,1.7C217,127,216.6,126.8,216.5,126.5L216.5,126.5z M181.2,125.2c0.8-2.5,1.7-3.7,2.1-2.7
	c0.1,0.3,0.5,0.5,0.9,0.5c1.9,0,0.1,2.7-1.9,2.9C181,126.1,180.9,126,181.2,125.2z M184.1,124.1c0-0.2-0.3-0.2-0.6,0.1
	c-0.3,0.3-0.6,0.6-0.6,0.6c0,0.1,0.3,0,0.6-0.1S184.1,124.3,184.1,124.1z M113.1,122.4c-0.7-0.7-0.9-3.7-0.2-3.7
	c0.3,0,0.4,0.6,0.3,1.5c-0.1,0.9,0.1,1.5,0.4,1.6c0.3,0.1,0.5-0.3,0.5-1.1c0-1,0.1-1.2,0.7-1c0.5,0.2,1.3-0.3,2.4-1.4
	c2.6-2.4,4-1.9,2.6,1C118.4,122.4,114.8,124,113.1,122.4z M117.2,121.6c0.5-0.3,1.1-1,1.3-1.4c0.4-0.7,0.4-0.8-0.4-0.4
	c-0.5,0.2-0.8,0.6-0.8,0.9c0,0.3-0.2,0.2-0.6-0.1c-0.5-0.4-0.7-0.4-1,0c-0.3,0.6-0.1,1.6,0.3,1.6
	C116.2,122.2,116.7,121.9,117.2,121.6L117.2,121.6z M119.6,118.3c0.2-0.7-0.4-0.6-1.3,0.1c-0.7,0.6-0.7,0.6,0.2,0.5
	C119,118.9,119.5,118.6,119.6,118.3L119.6,118.3z M175.1,117.8c-0.3-0.5,0.1-2.4,0.7-3.1c0.2-0.3,0.8-0.5,1.2-0.5
	c0.4,0,0.7-0.3,0.7-0.6c0-0.3,0.2-0.5,0.4-0.4c0.2,0.1,0.4,0.6,0.4,1.1c0,0.5,0.2,1.1,0.5,1.4c0.4,0.4,0.3,0.5-0.2,0.5
	c-0.4,0-1,0.4-1.4,1C176.6,118.3,175.6,118.5,175.1,117.8L175.1,117.8z M193.2,116.1c-0.5-0.3-1.3-0.7-1.7-0.8
	c-0.4-0.1-0.7-0.6-0.7-1c0-1,1.1-3.1,1.6-3.1c0.6,0,0.9,2.4,0.4,3c-0.6,0.7,0.5,1.8,1.6,1.8c0.4,0,0.7,0.2,0.5,0.4
	C194.7,116.8,194.4,116.8,193.2,116.1L193.2,116.1z M106.8,104c-1.5-0.8-1.8-1.2-1.7-2.7c0-1.1,0.1-1.1,0.2-0.2
	c0.4,2.3,1.9,2.7,2.3,0.5c0.4-1.9,0.9-2.5,2.2-2.5c1.9,0,1.7,2.1-0.4,3.9c-0.8,0.7-1.2,1.2-0.8,1.1s0.7-0.1,0.7,0.1
	C109.3,104.9,108.1,104.7,106.8,104L106.8,104z M108.5,102.7c0-0.2-0.1-0.4-0.2-0.4c-0.1,0-0.3,0.2-0.4,0.4
	c-0.1,0.2-0.1,0.4,0.2,0.4C108.4,103.1,108.5,103,108.5,102.7L108.5,102.7z M109.9,101.1c-0.4-0.6-1-0.4-0.7,0.2
	c0.1,0.3,0.4,0.5,0.6,0.4C110,101.6,110,101.3,109.9,101.1z M180.4,102.9c-0.1-0.3-0.2-1.5-0.2-2.5c0-1.6,0.1-1.9,1-2.3
	c1.1-0.5,1.5-0.2,2,1.4c0.4,1.4-0.1,3.1-1.2,3.6C180.6,103.6,180.7,103.7,180.4,102.9L180.4,102.9z M182.7,100
	c-0.4-1.5-0.6-1.8-1.1-1.3c-0.3,0.3-0.3,0.6,0,0.9c0.3,0.3,0.5,0.8,0.5,1.2c0,0.4,0.2,0.6,0.4,0.5
	C182.7,101.2,182.8,100.6,182.7,100L182.7,100z M115.8,95.9c-0.8-0.8-0.4-3.4,0.4-2.9c0.2,0.1,0.4,0,0.4-0.2c0-0.2,0.4-0.6,0.8-0.8
	c0.6-0.3,0.9-0.3,1.6,0.4c1,1,0.7,2.2-0.7,3.2C117,96.5,116.5,96.6,115.8,95.9z M117.9,95.2c0.1-0.2,0-0.4-0.4-0.4
	c-0.3,0-0.6,0.2-0.6,0.4c0,0.2,0.2,0.4,0.4,0.4C117.5,95.6,117.8,95.4,117.9,95.2z M118.1,93.2c0-0.5-0.2-0.7-0.6-0.6
	c-0.3,0.1-0.6,0.5-0.6,0.8s0.3,0.6,0.6,0.6C117.8,94,118.1,93.6,118.1,93.2z M155.5,94.4c0-1.7,1-2,2.2-0.5c1.1,1.4,1,1.7-0.8,1.7
	C155.6,95.6,155.5,95.5,155.5,94.4z M156.7,94.6c0-0.1-0.2-0.3-0.4-0.4c-0.2-0.1-0.4-0.1-0.4,0.2c0,0.2,0.2,0.4,0.4,0.4
	S156.7,94.7,156.7,94.6z M94,91.9c0.1-2,1.1-2.9,2-1.9c0.8,0.9,0,3.3-1.2,3.5C94,93.6,93.9,93.5,94,91.9z M95.6,92.1
	c0.4-1-0.2-1.2-0.8-0.3c-0.3,0.4-0.6,0.9-0.6,1.1C94.2,93.4,95.3,92.8,95.6,92.1z M182.3,87.1c-0.3-0.9,0.4-2.8,1.5-3.6
	c1-0.7,1.1-0.7,2.1-0.1c1.2,0.8,1.3,1.5,0.4,2.2c-0.3,0.3-0.6,0.8-0.6,1.1c0,0.6-0.1,0.6-0.4,0.1c-0.3-0.5-0.5-0.5-1.1,0.1
	C183.3,87.7,182.6,87.8,182.3,87.1z M185.3,84.8c0-0.4-0.2-0.8-0.4-0.8c-0.2,0-0.3,0.4-0.2,0.8c0.1,0.4,0.3,0.8,0.4,0.8
	S185.3,85.3,185.3,84.8z M136.5,52.9c-0.3-0.3-0.5-1-0.5-1.6c0-1.3,1.1-1.6,2.9-1c1,0.4,1.9,1.4,1.1,1.4c-0.2,0-0.4-0.2-0.5-0.5
	c-0.2-0.5-0.2-0.4-0.8,1.4C138.4,53.5,137.2,53.7,136.5,52.9z M137.3,51.8c-0.1-0.4-0.3-0.7-0.4-0.6c-0.2,0.2,0.2,1.4,0.4,1.4
	C137.4,52.6,137.4,52.3,137.3,51.8L137.3,51.8z M93.8,50c0-0.8,1.8-2.6,2.5-2.6c0.8,0,1.2,1.5,0.7,2.1c-0.3,0.3-0.7,0.3-1.3-0.1
	c-0.7-0.4-0.8-0.4-1,0.3C94.5,50.8,93.8,50.9,93.8,50z M110.2,46.6c-0.6-0.6-0.6-3,0-3.3c0.8-0.5,2.8-0.6,3.4-0.1
	c0.7,0.6,0.3,1.9-0.9,3C111.6,47.2,110.9,47.3,110.2,46.6L110.2,46.6z M127.6,42.7c-0.6-0.6-0.8-1.1-0.6-1.9c0.3-1.4,0.6-1.6,1-0.8
	c0.2,0.3,0.4,0.4,0.4,0.2c0-0.8,1.6-1.4,2.4-1c0.6,0.3,0.7,0.7,0.5,1.7C130.9,43.4,129.2,44.2,127.6,42.7z M129,42.3
	c-1.1-0.5-1.5-0.5-1.2,0c0.1,0.2,0.6,0.4,1.1,0.4C129.8,42.6,129.8,42.6,129,42.3z M130.7,40.4c-0.1-0.4-0.2-0.2-0.2,0.5
	c0,0.7,0.1,1,0.2,0.7C130.8,41.3,130.8,40.8,130.7,40.4L130.7,40.4z M150.8,40.9c-0.5-0.3-0.9-0.5-1.1-0.3c-0.1,0.1-0.3,0.1-0.3-0.1
	c0-0.2-0.5-0.3-1.2-0.2c-1,0.1-1.2,0-1.4-0.9c-0.3-1.2,0.7-3,1.7-3c0.4,0,1.4,0.3,2.3,0.6c1.3,0.5,1.6,0.8,1.9,2
	C153.4,41.3,152.6,42.1,150.8,40.9L150.8,40.9z M152.6,40c-0.2-0.8-0.7-1-1.5-0.6c-0.7,0.5-0.2,1.2,0.8,1.2
	C152.5,40.7,152.7,40.5,152.6,40z M148.6,39c0.3-0.3,0.5-0.8,0.4-1.1c0-0.5-0.1-0.5-0.3,0c-0.1,0.3-0.5,0.8-0.9,1.1
	c-0.3,0.3-0.4,0.5-0.2,0.5C148,39.5,148.4,39.3,148.6,39L148.6,39z M116.3,26.8c-1.5-1.7,1.5-6.5,3.1-4.9c0.2,0.2,0.7,0.3,1.2,0.3
	c1.2,0,1.5,1.8,0.3,2.1c-0.5,0.1-0.8,0.5-0.8,1C120.1,27.5,117.8,28.4,116.3,26.8L116.3,26.8z M118.6,26.5c-0.3-0.1-0.7-0.1-1,0
	c-0.3,0.1,0,0.2,0.5,0.2C118.6,26.7,118.9,26.6,118.6,26.5L118.6,26.5z M118.9,25.4c0-0.1-0.4-0.2-0.8-0.4c-0.4-0.1-0.8,0-0.8,0.2
	c0,0.2,0.4,0.4,0.8,0.4C118.5,25.6,118.9,25.5,118.9,25.4z M134.1,25.9c-0.7-0.7-0.6-3.7,0.3-4.7c1-1.2,2.4-0.8,3.7,1.2
	c1.5,2.1,1.4,2.9-0.1,2.7c-0.9-0.1-1.2,0-1.4,0.6C136.3,26.5,134.8,26.6,134.1,25.9z M135.9,25.4c-0.1-0.1-0.5-0.1-0.8,0
	c-0.3,0.1-0.2,0.2,0.2,0.2C135.8,25.6,136,25.5,135.9,25.4z M138.1,23.6c-0.1-0.4-0.5-1-0.8-1.2c-0.5-0.4-0.5-0.3-0.4,0.2
	c0.1,0.4,0.3,0.9,0.4,1.2C137.6,24.7,138.3,24.5,138.1,23.6L138.1,23.6z M96.6,21.6c-0.5-0.3-0.5-0.5,0.2-1.5
	c1.1-1.5,2.3-1.5,2.3-0.1c0,0.9,0.1,1,0.7,0.7c0.4-0.2,0.8-0.2,0.9,0C101.4,21.7,97.9,22.4,96.6,21.6z M98.8,20.4
	c0.4-0.6-0.5-0.8-1-0.2c-0.4,0.5-0.4,0.6,0.1,0.6C98.3,20.8,98.7,20.7,98.8,20.4L98.8,20.4z M160.9,15c-0.9-0.9,0.5-2.2,1.5-1.3
	c0.5,0.4,0.5,0.6,0.1,1C162.1,15.3,161.3,15.4,160.9,15z"/>
</svg>
