<?xml version="1.0"?>
<svg width="1183" height="1080" xmlns="http://www.w3.org/2000/svg" xmlns:svg="http://www.w3.org/2000/svg" enable-background="new 0 0 1183 1080" version="1.1" xml:space="preserve">
 <g class="layer">
  <title>Layer 1</title>
  <path d="m590,1081c-196.26,0 -392.52,0 -589,0c0,-179.03 0,-358.05 0.31,-537.36c1.62,0.59 2.83,1.77 4.27,2.27c3.77,1.33 7.69,2.23 11.47,3.52c47.68,16.28 91.14,40.27 130.39,71.85c51.94,41.81 90.63,93.41 114.96,155.64c0.78,1.99 3.36,4.81 4.8,4.65c1.99,-0.23 4.63,-2.58 5.4,-4.62c13.29,-34.85 32.31,-66.35 55.4,-95.46c35.9,-45.24 79.59,-81.7 127.83,-113.01c2.29,-1.49 3.89,-1.36 6.26,-0.03c18.24,10.29 36.62,20.33 54.87,30.6c2.04,1.15 3.96,2.97 5.24,4.94c6.41,9.91 12.42,20.09 18.89,29.96c7.01,10.69 14.36,21.15 21.6,31.75c-0.55,0.83 -0.97,1.54 -1.47,2.2c-47.98,62.89 -106.94,112.58 -178.36,146.85c-16.86,8.09 -34.91,13.66 -52.31,20.65c-1.88,0.76 -4.01,3.22 -4.21,5.08c-0.16,1.44 2.3,3.49 3.99,4.72c1.26,0.91 3.16,0.91 4.75,1.4c39.9,12.28 76.75,30.9 111.1,54.43c61.08,41.83 107.56,95.9 136.76,164.32c2.25,5.26 4.7,10.43 7.06,15.65z" fill="#FFFFFF" id="svg_1" opacity="1"/>
  <path d="m595,1c196.26,0 392.52,0 589,0c0,179.03 0,358.05 -0.31,537.36c-4.49,-1.43 -8.6,-3.4 -12.89,-4.83c-48.77,-16.31 -93.17,-40.62 -133.22,-72.83c-51.96,-41.78 -90.65,-93.38 -114.98,-155.62c-0.78,-1.99 -3.35,-4.81 -4.8,-4.65c-1.99,0.23 -4.62,2.57 -5.4,4.61c-13.44,35.15 -32.67,66.91 -56.04,96.24c-35.55,44.63 -78.73,80.67 -126.33,111.72c-2.35,1.53 -3.89,1.24 -6.18,-0.05c-18.96,-10.7 -38.02,-21.22 -57.01,-31.85c-1.39,-0.77 -2.89,-1.75 -3.74,-3.03c-13.09,-19.85 -26.12,-39.76 -39,-59.75c-0.71,-1.1 -0.66,-3.52 0.09,-4.58c3.15,-4.5 6.63,-8.76 10.1,-13.02c47.59,-58.31 104.91,-104.33 173.29,-136.05c15.16,-7.04 31.32,-11.92 46.9,-18.08c1.87,-0.75 3.99,-3.23 4.18,-5.1c0.15,-1.45 -2.23,-3.78 -4.02,-4.66c-2.78,-1.38 -6.05,-1.75 -9.04,-2.75c-47.04,-15.56 -89.95,-38.87 -128.93,-69.37c-51.09,-39.99 -89.92,-89.5 -115.21,-149.43c-2.03,-4.81 -4.3,-9.52 -6.46,-14.28z" fill="#FFFFFF" id="svg_2" opacity="1" transform="matrix(1 0 0 1 0 0)"/>
  <path d="m1,539c0,-179.27 0,-358.53 0,-538c196.03,0 392.05,0 588.5,0.36c-0.56,2.03 -1.78,3.61 -2.48,5.39c-22.67,57.49 -57.59,106.27 -104.58,146.32c-44.85,38.22 -95.12,66.74 -151.79,83.66c-1.86,0.55 -4.28,3.25 -4.28,4.95c-0.01,1.69 2.41,4.21 4.31,4.93c10.07,3.83 20.54,6.68 30.47,10.83c69.76,29.13 128.67,73.26 178.36,129.96c7.97,9.09 15.39,18.66 22.46,27.29c-13.59,21.16 -26.57,41.48 -39.72,61.68c-1.36,2.09 -3.45,3.98 -5.62,5.21c-18.53,10.46 -37.18,20.67 -55.69,31.16c-2.6,1.48 -4.25,1.3 -6.65,-0.27c-24.46,-15.91 -47.83,-33.25 -69.65,-52.64c-48.82,-43.4 -88.35,-93.52 -112.14,-155.05c-0.75,-1.94 -3.34,-4.39 -5.05,-4.37c-1.71,0.02 -4.21,2.52 -4.97,4.47c-26.45,67.76 -69.69,122.58 -127.88,165.76c-39.31,29.16 -82.12,51.6 -129.22,65.48c-1.61,0.47 -2.93,1.9 -4.38,2.88z" fill="#FFFFFF" id="svg_3" opacity="1"/>
  <path d="m564.98,981.14c6.26,14.1 12.23,27.94 18.46,41.65c1.21,2.66 3.39,4.79 5.13,7.17c1.53,-2.38 3.39,-4.58 4.57,-7.15c7.4,-16.23 13.61,-33.23 22.22,-48.65c8.92,-15.97 19.38,-31.14 30.5,-45.42c19.33,-24.85 42.67,-44.88 68.78,-60.73c12.39,-7.51 25.61,-13.4 38.43,-20.1c3.93,-2.06 7.76,-4.37 12.78,-7.2c-2.73,-1.93 -4.33,-3.32 -6.12,-4.28c-13.17,-7.04 -26.66,-13.45 -39.52,-21.09c-24.38,-14.48 -47.01,-31.84 -67.38,-52.42c-14.56,-14.72 -28.62,-30.03 -42.67,-45.33c-5.39,-5.88 -10.21,-12.4 -15.13,-18.76c-0.66,-0.85 -1,-3.02 -0.49,-3.77c4.89,-7.16 9.99,-14.15 15.41,-21.72c54.38,76.09 121.21,133.23 205.24,167.86c-103.03,42.4 -181.47,112.28 -226.6,224.49c-45.5,-111.58 -123.58,-182.14 -226.71,-224.57c83.47,-34.55 150.39,-91.34 205.02,-167.16c5.34,7.32 10.26,13.84 14.84,20.61c0.6,0.89 0.04,3.57 -0.81,4.64c-6.99,8.82 -13.96,17.68 -21.33,26.11c-25.28,28.92 -52.66,55.16 -83.37,77.15c-17.56,12.57 -35.89,23.51 -55.53,31.78c-1.99,0.84 -3.91,1.9 -5.82,2.98c-4.24,2.41 -4.32,4.02 -0.02,6.67c2.64,1.62 5.55,2.75 8.4,3.92c31.42,12.92 59.23,32.23 84.56,56.06c23.29,21.91 42.29,47.53 57.17,77.26z" fill="#006AD7" id="svg_40" opacity="1" transform="matrix(1 0 0 1 0 0)"/>
  <path d="m631.02,86.97c14.15,20.07 29.8,38.44 47.08,55.34c37.3,36.45 80.06,64.89 127.84,85.77c10.96,4.79 22.14,9.07 33.57,13.73c-3.09,1.31 -6.07,2.71 -9.14,3.85c-39.03,14.39 -75.03,34.51 -107.9,59.77c-20.81,15.98 -40.89,33.09 -59.87,51.19c-15.24,14.54 -28.4,31.26 -42.35,47.13c-3.67,4.18 -4.34,4.37 -7.77,0.02c-3.43,-4.35 -9.7,-12.24 -14.89,-18.79c25.71,-30.46 53.75,-58.27 84.68,-83.15c31,-24.93 65.49,-44.06 102.28,-59.3c-0.06,-0.74 -0.12,-1.48 -0.19,-2.22c-3.83,-2.05 -7.5,-4.51 -11.52,-6.09c-45.86,-18.05 -85.6,-45.02 -118.59,-81.68c-22.82,-25.34 -40.53,-53.95 -53.18,-85.66c-1.42,-3.55 -2.98,-7.09 -4.94,-10.35c-1.11,-1.83 -3.19,-3.09 -4.83,-4.61c-1.39,1.68 -3.21,3.16 -4.09,5.07c-5.72,12.38 -10.79,25.08 -16.92,37.24c-12.29,24.4 -28.51,46 -47.37,65.79c-21.79,22.88 -46.6,41.7 -74.27,56.69c-11.96,6.48 -24.68,11.54 -37.02,17.32c-3.88,1.81 -7.64,3.87 -11.45,5.82c-0.1,0.56 -0.2,1.11 -0.3,1.67c5.01,2.62 9.88,5.58 15.06,7.82c36.65,15.85 70.48,36.46 99.94,63.29c23.96,21.83 46.09,45.68 69.06,68.6c1.84,1.84 2.96,3.5 1.01,5.97c-5.46,6.9 -10.85,13.86 -16.61,21.23c-29.43,-37.09 -61.98,-70.48 -99.37,-98.82c-37.47,-28.4 -78.16,-51.18 -123.34,-67.66c112.28,-42.25 197.53,-112.99 247.09,-224.7c10.59,25 22.72,48.13 38.3,69.72z" fill="#006AD7" id="svg_41" opacity="1" transform="matrix(1 0 0 1 0 0)"/>
  <path d="m175.72,634.27c-25.27,-23.69 -52.45,-44.32 -82.89,-60.11c-21.52,-11.17 -43.97,-20.57 -66,-30.75c-1.49,-0.69 -3.01,-1.31 -5.48,-2.38c111.56,-42.25 196.35,-112.95 246.23,-224.35c39.18,87.54 102.93,151.91 182.49,203.34c-7.8,5.17 -14.72,9.9 -21.86,14.29c-0.84,0.51 -3.1,-0.52 -4.25,-1.42c-15.2,-11.9 -30.91,-23.22 -45.28,-36.05c-16.5,-14.71 -32.55,-30.09 -47.44,-46.42c-24.13,-26.47 -43.99,-55.96 -57.18,-89.57c-0.97,-2.47 -2.07,-4.92 -3.41,-7.21c-2.15,-3.68 -4.9,-3.66 -7.26,-0.08c-0.54,0.82 -0.96,1.76 -1.3,2.69c-10.77,29.85 -26.29,57.07 -45.65,82.11c-20.48,26.49 -45.45,48.06 -73.47,66.21c-18.93,12.26 -38.91,22.4 -60.08,30.25c-2.88,1.06 -5.16,3.73 -7.72,5.66c2.64,1.8 5.05,4.22 7.95,5.31c38.8,14.63 73.4,35.86 103.73,64.24c32.69,30.58 56.46,67.01 73.14,108.33c1.18,2.91 2.58,5.82 4.4,8.35c2.54,3.55 4.76,3.31 6.6,-0.59c2.41,-5.12 4.36,-10.45 6.75,-15.57c13.5,-28.83 30.81,-55.19 52.03,-78.91c27.96,-31.25 59.11,-58.97 93.35,-83.22c3.24,-2.3 5.55,-2.45 8.75,-0.13c5.88,4.26 12.06,8.11 18.92,12.66c-78.85,52.26 -143.97,115.82 -183.37,204.4c-22.36,-50.55 -52.16,-94.06 -91.7,-131.08z" fill="#006AD7" id="svg_42" opacity="1" transform="matrix(1 0 0 1 0 0)"/>
  <path d="m903.98,705.09c2.82,7.15 5.33,14.03 8.32,20.69c0.79,1.77 3.02,3.97 4.64,4.01c1.64,0.04 4.1,-2 4.89,-3.73c3.85,-8.46 7.11,-17.18 10.88,-25.69c14.53,-32.84 35.33,-61.36 60.85,-86.42c28.73,-28.21 62.13,-49.43 99.34,-64.7c3.84,-1.58 8.02,-2.39 11.72,-4.2c2.11,-1.04 3.57,-3.38 5.32,-5.14c-1.71,-1.58 -3.16,-3.96 -5.18,-4.62c-28.01,-9.26 -53.58,-23.18 -77.38,-40.4c-36.02,-26.06 -65.18,-58.38 -86.13,-97.64c-7.41,-13.87 -12.8,-28.82 -19.37,-43.15c-0.8,-1.75 -3.3,-3.91 -4.86,-3.79c-1.68,0.12 -3.98,2.42 -4.62,4.26c-6.22,17.86 -14.42,34.84 -25.04,50.35c-11.07,16.16 -22.92,31.9 -35.68,46.76c-26.04,30.34 -56.86,55.5 -88.94,79.19c-4.09,3.02 -7.08,3.72 -11.29,0.3c-4.74,-3.84 -10.11,-6.91 -15.72,-10.66c78.1,-52.01 143.53,-114.88 181.8,-203.09c48.55,111.36 133.88,181.25 244.71,223.64c-111.51,42.3 -196.01,112.76 -244.97,223.37c-18.26,-43.64 -44.41,-81.36 -75.95,-115.34c-31.49,-33.93 -67.35,-62.76 -107.05,-88.27c7.48,-4.97 14.28,-9.6 21.25,-13.96c0.83,-0.52 2.92,0.04 3.89,0.79c16.68,12.95 33.52,25.71 49.82,39.14c9.61,7.92 18.64,16.63 27.39,25.52c27,27.43 50.34,57.6 67.36,92.78z" fill="#006AD7" id="svg_43" opacity="1"/>
  <path d="m273.38,379.64c16.25,32.4 36.3,61.66 61.82,86.99c2.84,2.82 3.22,4.56 0.14,7.59c-18.18,17.88 -36.12,35.99 -54.22,53.95c-4.12,4.09 -8.53,7.89 -13.17,12.15c-2.06,-1.72 -4.2,-3.25 -6.04,-5.08c-20.09,-19.99 -40.07,-40.07 -60.23,-59.98c-2.88,-2.86 -3.1,-4.57 -0.1,-7.6c20.28,-20.48 36.96,-43.64 50.21,-69.23c5.11,-9.88 9.93,-19.9 15.27,-30.63c2.16,4.05 4.15,7.78 6.32,11.84z" fill="#007000" id="svg_44" opacity="1"/>
  <path d="m887.35,420.35c10.22,-17.24 20.24,-34.18 30.54,-51.59c0.82,1.35 1.55,2.23 1.94,3.24c11.46,29.29 28.43,55.23 48.21,79.45c5.15,6.3 10.7,12.28 16.23,18.27c1.86,2.01 2.05,3.4 0.03,5.4c-21.82,21.74 -43.59,43.53 -65.7,65.64c-2.47,-2 -4.51,-3.38 -6.23,-5.09c-20.68,-20.55 -41.22,-41.25 -62.04,-61.66c-4.32,-4.24 -0.82,-6.4 1.3,-9c9.55,-11.73 19.26,-23.33 28.82,-35.05c2.41,-2.96 4.48,-6.2 6.9,-9.61z" fill="#007000" id="svg_45" opacity="1"/>
  <path d="m643.84,153.15c5.81,6.67 11.38,13.07 16.64,19.1c-22.72,22.67 -45.42,45.31 -67.82,67.66c-22.35,-22.33 -45.28,-45.23 -68.42,-68.35c28.85,-29.5 50.34,-64.42 68.14,-103.76c13.23,31.62 29.91,59.79 51.46,85.35z" fill="#a74364" id="svg_46" opacity="1"/>
  <path d="m173.24,493.25c6.95,-5.71 13.62,-11.2 19.97,-16.43c23.18,23.18 46.21,46.21 68.37,68.36c-20.29,21.16 -40.97,42.73 -61,63.63c-17.8,-13.29 -34.11,-26.81 -51.76,-38.27c-17.53,-11.37 -36.41,-20.66 -55.02,-31.04c28.24,-11.37 54.71,-27 79.44,-46.25z" fill="#B14364" id="svg_47" opacity="1"/>
  <path d="m425.35,842.69c-1.94,-0.91 -3.54,-1.64 -6.07,-2.81c2.47,-1.48 4.14,-2.72 5.99,-3.57c30.81,-14.3 59.1,-32.61 85.71,-53.62c8.47,-6.69 8.51,-6.63 16.15,0.88c15.08,14.84 30.22,29.61 45.23,44.52c5.4,5.37 10.48,11.07 15.89,16.82c-0.98,1.17 -1.75,2.21 -2.66,3.12c-18.99,18.96 -38.05,37.84 -56.93,56.91c-3.11,3.14 -4.96,3.39 -8.38,0.15c-26.35,-24.9 -56.3,-44.53 -89.07,-59.93c-1.8,-0.85 -3.68,-1.53 -5.86,-2.47z" fill="#007100" id="svg_48" opacity="1"/>
  <path d="m524.74,308.3c-5.89,-4.31 -11.91,-8.43 -17.62,-12.95c-24.52,-19.39 -50.99,-35.63 -79.06,-49.3c-2.97,-1.44 -5.89,-3 -9.83,-5.01c3.76,-1.92 6.69,-3.64 9.78,-4.97c32.14,-13.77 60.45,-33.53 87.05,-55.89c3.15,-2.65 4.72,-2.19 7.31,0.41c21.02,21.2 42.17,42.29 63.46,64.1c0.18,1.58 0.18,2.46 0.17,3.34c0,0 -0.01,-0.03 -0.24,0.04c-0.41,0.37 -0.59,0.66 -0.77,0.96c0,0 0,-0.04 -0.23,0.04c-0.41,0.37 -0.59,0.66 -0.77,0.96c0,0 0,-0.04 -0.31,-0.01c-0.77,0.68 -1.23,1.34 -1.68,2c0,0 -0.01,-0.03 -0.24,0.05c-0.41,0.37 -0.59,0.66 -0.77,0.95c0,0 0,-0.03 -0.23,0.05c-0.41,0.37 -0.59,0.66 -0.77,0.95c0,0 0,-0.03 -0.23,0.05c-0.41,0.37 -0.59,0.66 -0.76,0.95c0,0 -0.01,-0.03 -0.24,0.05c-0.42,0.37 -0.59,0.66 -0.76,0.95c0,0 -0.01,-0.03 -0.24,0.05c-0.41,0.37 -0.59,0.66 -0.76,0.95c0,0 -0.01,-0.03 -0.24,0.05c-0.41,0.37 -0.59,0.66 -0.77,0.95c0,0 0,-0.03 -0.23,0.05c-0.41,0.37 -0.59,0.66 -0.77,0.95c0,0 0,-0.03 -0.23,0.05c-0.41,0.37 -0.59,0.66 -0.77,0.95c0,0 0,-0.03 -0.23,0.05c-0.41,0.37 -0.59,0.66 -0.76,0.95c0,0 -0.01,-0.03 -0.24,0.05c-0.41,0.37 -0.59,0.66 -0.76,0.95c0,0 0,-0.03 -0.24,0.05c-0.42,0.37 -0.59,0.66 -0.76,0.95c0,0 0,-0.02 -0.25,0.05c-0.41,0.36 -0.58,0.66 -0.75,0.95c0,0 0,-0.02 -0.25,0.05c-0.41,0.36 -0.58,0.66 -0.75,0.95c0,0 0,-0.02 -0.34,-0.01c-1.78,1.67 -3.22,3.34 -4.66,5.01c0,0 0,-0.02 -0.25,0.05c-0.41,0.36 -0.58,0.66 -0.75,0.95c0,0 0,-0.02 -0.25,0.05c-0.41,0.36 -0.58,0.66 -0.75,0.95c0,0 0,-0.02 -0.24,0.05c-0.42,0.37 -0.59,0.66 -0.76,0.95c0,0 0,-0.02 -0.24,0.05c-0.42,0.37 -0.59,0.66 -0.76,0.95c0,0 0,-0.02 -0.24,0.05c-0.42,0.37 -0.59,0.66 -0.76,0.95c0,0 0,-0.02 -0.24,0.05c-0.42,0.37 -0.59,0.66 -0.76,0.95c0,0 0,-0.02 -0.24,0.05c-0.42,0.37 -0.59,0.66 -0.76,0.95c0,0 0,-0.02 -0.25,0.05c-0.41,0.37 -0.58,0.66 -0.75,0.95c0,0 0,-0.02 -0.25,0.05c-0.41,0.36 -0.58,0.66 -0.75,0.95c0,0 0,-0.02 -0.25,0.05c-0.41,0.36 -0.58,0.66 -0.75,0.95c0,0 0,-0.02 -0.34,-0.02c-1.78,1.68 -3.21,3.35 -4.65,5.02c0,0 -0.01,-0.02 -0.26,0.05c-0.41,0.36 -0.58,0.66 -0.75,0.95c0,0 0,-0.02 -0.25,0.05c-0.41,0.36 -0.58,0.66 -0.75,0.95c0,0 0,-0.02 -0.24,0.05c-0.42,0.36 -0.59,0.66 -0.76,0.95c0,0 0,-0.02 -0.24,0.05c-0.42,0.37 -0.59,0.66 -0.76,0.95c0,0 0,-0.02 -0.24,0.05c-0.42,0.37 -0.59,0.66 -0.76,0.95c0,0 0,-0.02 -0.24,0.05c-0.42,0.37 -0.59,0.66 -0.76,0.95c0,0 0,-0.02 -0.24,0.05c-0.42,0.37 -0.59,0.66 -0.76,0.95c0,0 0,-0.02 -0.25,0.05c-0.41,0.36 -0.58,0.66 -0.75,0.95c0,0 0,-0.02 -0.25,0.05c-0.41,0.36 -0.58,0.66 -0.75,0.95c0,0 0,-0.02 -0.25,0.05c-0.41,0.36 -0.58,0.66 -0.75,0.95c0,0 0,-0.02 -0.25,0.05c-0.41,0.36 -0.58,0.66 -0.75,0.95c0,0 0,-0.02 -0.34,-0.02c-1.44,1.35 -2.55,2.69 -3.65,4.02c0,0 -0.01,-0.02 -0.26,0.05c-0.41,0.36 -0.58,0.66 -0.75,0.95c0,0 0,-0.02 -0.25,0.05c-0.41,0.36 -0.58,0.66 -0.75,0.95c0,0 0,-0.02 -0.25,0.05c-0.41,0.36 -0.58,0.66 -0.75,0.95c0,0 0,-0.02 -0.24,0.05c-0.42,0.36 -0.59,0.66 -0.76,0.95c0,0 0,-0.02 -0.24,0.05c-0.42,0.37 -0.59,0.66 -0.76,0.95c0,0 0,-0.02 -0.24,0.05c-0.42,0.37 -0.59,0.66 -0.76,0.95c0,0 0,-0.02 -0.24,0.05c-0.42,0.37 -0.59,0.66 -0.76,0.95c0,0 0,-0.02 -0.34,-0.01c-0.86,0.44 -1.39,0.86 -1.92,1.29z" fill="#007100" id="svg_49" opacity="1"/>
  <path d="m727.28,859.28c-24.23,13.57 -46,29.88 -66.18,48.84c-1.29,-1.13 -2.44,-2.03 -3.46,-3.05c-18.86,-18.84 -37.65,-37.76 -56.62,-56.5c-2.98,-2.94 -3.56,-4.7 -0.21,-7.93c20.26,-19.53 40.38,-39.21 60.36,-59.03c3.66,-3.63 6.32,-3.84 10.45,-0.66c21.52,16.54 43.77,32.03 67.73,44.89c7.47,4 15.25,7.42 22.89,11.11c1.15,0.56 2.32,1.1 4.13,1.96c-13.32,6.94 -26.04,13.57 -39.09,20.37z" fill="#007000" id="svg_50" opacity="1"/>
  <path d="m646.11,294.99c-14.54,-14.64 -29.06,-29.3 -43.63,-43.91c-1.4,-1.41 -3.07,-2.55 -4.23,-3.5c23.34,-23.32 46.12,-46.08 69.52,-69.46c27.76,26.98 62.03,45.48 98.73,62.73c-3.78,2.02 -6.21,3.26 -8.59,4.6c-16.77,9.44 -34.03,18.12 -50.13,28.57c-15.42,10.01 -29.63,21.89 -44.4,32.91c-0.77,0.58 -1.76,0.86 -3.15,0.98c-2.76,-2.45 -5.03,-4.62 -7.29,-6.79c0,0 -0.05,-0.03 -0.14,-0.27c-0.27,-0.5 -0.52,-0.66 -0.83,-0.73c0,0 -0.07,-0.02 -0.16,-0.27c-0.28,-0.5 -0.53,-0.67 -0.84,-0.73c0,0 -0.07,-0.02 -0.16,-0.27c-0.28,-0.5 -0.53,-0.67 -0.84,-0.73c0,0 -0.07,-0.02 -0.16,-0.27c-0.28,-0.51 -0.53,-0.67 -0.84,-0.73c0,0 -0.07,-0.02 -0.16,-0.27c-0.28,-0.51 -0.53,-0.67 -0.84,-0.73c0,0 -0.05,-0.02 -0.2,-0.28c-0.65,-0.46 -1.15,-0.65 -1.66,-0.85z" fill="#017101" id="svg_51" opacity="1" transform="matrix(1 0 0 1 0 0)"/>
  <path d="m1013.05,585.04c-9.15,7.76 -18.01,15.31 -26.34,22.41c-20.87,-20.78 -41.8,-41.62 -62.54,-62.26c22.15,-22.05 44.8,-44.58 67.9,-67.57c28.6,26.24 61.53,47.45 99.37,62.68c-28.86,11.33 -54.33,26.46 -78.39,44.74z" fill="#CE2400" id="svg_52" opacity="1"/>
  <path d="m840.2,603.81c-23.55,-23.13 -48.91,-43.57 -74.79,-62.95c25.94,-21.71 51.69,-43.26 77.11,-64.53c22.97,22.94 46.45,46.39 68.78,68.69c-20.87,21.58 -42.11,43.53 -63.66,65.8c-2.63,-2.48 -4.91,-4.62 -7.44,-7.01z" fill="#B14364" id="svg_53" opacity="1"/>
  <path d="m509.6,537.56c17.58,-7.97 34.88,-15.67 52.06,-23.63c1.84,-0.85 3.39,-2.97 4.4,-4.86c8.57,-16.1 16.98,-32.28 26.06,-49.64c5,8.73 9.43,16.05 13.46,23.58c4.62,8.63 8.74,17.54 13.44,26.13c1.21,2.22 3.49,4.34 5.79,5.42c17.74,8.31 35.62,16.34 53.44,24.48c1,0.45 1.91,1.09 3.66,2.1c-7.06,3.51 -13.3,6.85 -19.74,9.76c-12.41,5.6 -24.98,10.84 -37.35,16.53c-2.3,1.06 -4.61,3.18 -5.81,5.41c-8.64,16.06 -17.01,32.27 -26.12,49.71c-4.83,-8.41 -9.07,-15.41 -12.93,-22.61c-4.72,-8.78 -8.93,-17.82 -13.77,-26.53c-1.38,-2.48 -3.83,-4.93 -6.38,-6.1c-18.66,-8.56 -37.47,-16.79 -57.55,-25.71c3.39,-1.86 5.21,-2.85 7.34,-4.04z" fill="#FDFDFD" id="svg_54" opacity="1"/>
  <path d="m915.84,710.85c-9.39,-16.84 -17.75,-33.96 -28.13,-49.75c-10.37,-15.76 -22.77,-30.2 -34.5,-45.5c0.46,-0.57 0.99,-1.37 1.66,-2.04c19.63,-19.91 39.28,-39.81 58.92,-59.72c2.05,-2.08 3.65,-4.18 6.82,-0.97c19.56,19.77 39.27,39.38 58.92,59.06c0.56,0.56 0.98,1.27 1.51,1.96c-7.66,9.2 -15.47,18.01 -22.65,27.31c-13.68,17.69 -24.82,36.96 -34.34,57.18c-1.98,4.21 -3.91,8.46 -5.99,12.63c-0.16,0.31 -1.35,0.12 -2.22,-0.16z" fill="#007100" id="svg_55" opacity="1"/>
  <path d="m220.26,633.76c-5.56,-6.41 -10.87,-12.55 -15.8,-18.25c21.41,-21.4 42.66,-42.66 63.61,-63.6c21.03,21.07 42.51,42.6 64.31,64.45c-26.8,27.54 -47.81,60.04 -65.27,95.3c-12.42,-28.33 -28.56,-53.56 -46.85,-77.9z" fill="#007100" id="svg_56" opacity="1"/>
  <path d="m389.37,516.63c10.25,7.96 20.24,15.69 29.56,22.92c-27.42,23.11 -54.84,46.21 -81.92,69.02c-20.51,-20.56 -41.83,-41.93 -62.83,-62.99c22.41,-22.3 45.59,-45.37 69.03,-68.7c14.7,12.67 30.29,26.09 46.16,39.75z" fill="#B14364" id="svg_57" opacity="1"/>
  <path d="m580.56,988.4c-13.85,-27.54 -30.93,-52.4 -51.6,-74.11c21.68,-21.67 42.97,-42.93 64.49,-64.43c0.17,0.1 0.82,0.31 1.25,0.74c19.57,19.76 39.08,39.56 58.69,59.25c2.39,2.4 1.83,4.06 -0.04,6.33c-7.73,9.36 -15.64,18.6 -22.9,28.32c-14.61,19.55 -25.62,41.22 -36.06,63.18c-0.55,1.16 -1.17,2.3 -2.29,4.46c-4.04,-8.33 -7.7,-15.87 -11.54,-23.74z" fill="#B14364" id="svg_58" opacity="1"/>
  <path d="m619.17,732.84c13.68,13.38 27.12,26.49 40.32,39.38c-22.16,22.14 -44.47,44.44 -66.65,66.61c-22.13,-22.23 -44.52,-44.71 -66.68,-66.97c21.63,-22.03 44.03,-44.85 66.61,-67.86c8.46,9.24 17.31,18.91 26.4,28.84z" fill="#B14364" id="svg_59" opacity="1"/>
  <path d="m546.39,329.61c-5.16,-5.44 -10.06,-10.64 -14.51,-15.35c20.26,-20.24 40.93,-40.88 61.12,-61.06c19.7,19.69 40.22,40.2 60.48,60.46c-20.11,20.71 -40.72,41.93 -61.42,63.24c-15,-15.55 -30.21,-31.3 -45.67,-47.29z" fill="#b14364" id="svg_60" opacity="1" transform="matrix(1 0 0 1 0 0)"/>
  <path d="m488.93,506.94c10,-5.35 19.43,-11.07 29.43,-15.52c6.74,-2.99 10.6,-7.81 14.32,-13.72c10.79,-17.17 22.06,-34.04 33.17,-51.01c0.63,-0.95 1.5,-1.74 2.9,-3.34c6.04,9.03 11.88,17.63 17.48,26.38c0.55,0.85 -0.03,2.82 -0.64,3.97c-8.65,16.11 -17.34,32.2 -26.19,48.2c-1.05,1.88 -2.83,3.78 -4.73,4.69c-19.06,9.07 -38.26,17.84 -57.31,26.94c-3.22,1.54 -5.74,1.73 -8.79,-0.12c-7.09,-4.3 -14.32,-8.38 -22.48,-13.12c8.07,-4.72 15.29,-8.95 22.84,-13.35z" fill="#0000ff" id="svg_61" opacity="1" transform="matrix(1 0 0 1 0 0)"/>
  <path d="m615.71,597.73c3.24,-6.23 6.16,-12.22 9.45,-17.99c1.06,-1.87 2.86,-3.72 4.77,-4.63c19.51,-9.29 39.09,-18.45 58.76,-27.4c1.87,-0.85 4.88,-0.81 6.7,0.12c7.36,3.77 14.46,8.05 22.6,12.68c-4.79,2.89 -8.61,5.38 -12.6,7.57c-13.98,7.67 -28.15,15.03 -41.97,23c-3.54,2.04 -6.61,5.51 -8.94,8.96c-11.73,17.35 -23.14,34.92 -34.68,52.41c-1.06,1.61 -2.26,3.14 -3.83,5.3c-2.2,-2.85 -4.11,-5.08 -5.75,-7.49c-3.57,-5.21 -6.84,-10.63 -10.54,-15.74c-1.86,-2.56 -1.82,-4.53 -0.29,-7.21c5.51,-9.68 10.78,-19.49 16.32,-29.58z" fill="#0000ff" id="svg_62" opacity="1" transform="matrix(1 0 0 1 0 0)"/>
  <path d="m617.31,424.99c12.97,19.92 25.67,39.62 38.51,59.23c1.2,1.82 3.13,3.39 5.06,4.46c18.46,10.23 36.99,20.33 55.49,30.48c0.41,0.23 0.72,0.65 1.78,1.65c-8.3,4.74 -16.23,9.44 -24.35,13.77c-1.24,0.66 -3.56,0.03 -5.08,-0.67c-19.62,-9.06 -39.19,-18.2 -58.71,-27.46c-1.65,-0.78 -3.21,-2.37 -4.1,-3.98c-9,-16.3 -17.88,-32.66 -26.68,-49.07c-0.58,-1.09 -0.88,-3.05 -0.3,-3.95c5.35,-8.22 10.92,-16.3 16.49,-24.38c0.23,-0.34 1.09,-0.23 1.89,-0.08z" fill="#0000ff" id="svg_63" opacity="1"/>
  <path d="m487.38,549.25c3.81,-2.82 6.97,-2.26 10.88,-0.37c18.71,9.03 37.64,17.6 56.41,26.53c1.9,0.9 3.68,2.81 4.72,4.69c8.86,16 17.57,32.08 26.17,48.22c0.7,1.32 0.92,3.7 0.2,4.84c-5.18,8.11 -10.66,16.03 -16.69,24.96c-4.38,-6.19 -8.44,-11.54 -12.07,-17.18c-9.11,-14.11 -17.89,-28.43 -27.1,-42.46c-1.89,-2.88 -4.74,-5.53 -7.75,-7.19c-17.89,-9.89 -35.96,-19.47 -55.37,-29.9c7.57,-4.47 13.92,-8.21 20.6,-12.14z" fill="#0000ff" id="svg_64" opacity="1" transform="matrix(1 0 0 1 0 0)"/>
  <path d="m602.21,428.18c-3.31,4.74 -6.39,9.18 -9.69,13.93c-5.77,-8.26 -11.35,-16.07 -16.67,-24.04c-0.72,-1.08 -0.83,-3.46 -0.13,-4.45c5.09,-7.08 10.46,-13.97 16.43,-21.82c6.23,8.06 11.92,15.29 17.36,22.7c0.58,0.78 0.05,2.87 -0.62,3.96c-1.98,3.25 -4.29,6.31 -6.68,9.72z" fill="#0000ff" id="svg_65" opacity="1" transform="matrix(1 0 0 1 0 0)"/>
  <path d="m587.28,652.36c1.14,-1.59 2.09,-2.88 3.24,-4.44c5.43,7.79 10.75,15.16 15.71,22.77c0.78,1.2 0.65,3.93 -0.21,5.13c-4.9,6.84 -10.14,13.44 -15.84,20.88c-5.72,-7.47 -11.11,-14.31 -16.17,-21.39c-0.67,-0.93 -0.12,-3.4 0.69,-4.63c3.98,-6.1 8.23,-12.03 12.58,-18.32z" fill="#0000ff" id="svg_66" opacity="1" transform="matrix(1 0 0 1 0 0)"/>
  <path d="m716.65,531.62c7.76,-7.03 14.65,-4.77 21.63,0.81c3.32,2.66 7.15,4.68 11.92,7.75c-8.28,5.27 -15.7,10.05 -23.22,14.69c-0.66,0.4 -2.06,0.17 -2.83,-0.27c-7.46,-4.25 -14.86,-8.6 -23.54,-13.65c5.9,-3.43 10.81,-6.29 16.04,-9.33z" fill="#0000ff" id="svg_67" opacity="1" transform="matrix(1 0 0 1 0 0)"/>
  <path d="m468.02,550.04c-6.32,5.7 -11.92,5.26 -18.06,-0.07c-4.09,-3.56 -9.11,-6.05 -14.63,-9.61c5.12,-3.43 9.95,-6.2 14.22,-9.65c5.46,-4.4 10.05,-5.28 16.04,-0.35c5.06,4.16 11.39,6.76 18.06,10.56c-5.49,3.22 -10.4,6.09 -15.63,9.12z" fill="#0000ff" id="svg_68" opacity="1" transform="matrix(1 0 0 1 0 0)"/>
  <path d="m652.97,301.46c2.23,1.83 4.5,4 6.9,6.49c-2.2,-1.83 -4.54,-4 -6.9,-6.49z" fill="#2D2D2D" id="svg_69" opacity="1"/>
  <path d="m564.31,269.9c1.13,-1.55 2.57,-3.22 4.36,-4.89c-1.12,1.59 -2.59,3.18 -4.36,4.89z" fill="#337B33" id="svg_70" opacity="1"/>
  <path d="m549.31,284.91c1.14,-1.56 2.57,-3.23 4.36,-4.9c-1.12,1.59 -2.58,3.19 -4.36,4.9z" fill="#337B33" id="svg_71" opacity="1"/>
  <path d="m534.31,299.91c0.8,-1.22 1.91,-2.56 3.36,-3.9c-0.79,1.26 -1.92,2.52 -3.36,3.9z" fill="#337B33" id="svg_72" opacity="1"/>
  <path d="m586.29,247.92c-0.28,-0.77 -0.28,-1.65 -0.27,-2.98c0.18,0.66 0.37,1.77 0.27,2.98z" fill="#337B33" id="svg_73" opacity="1"/>
  <path d="m582.28,251.92c0.17,-0.56 0.63,-1.22 1.41,-1.9c-0.15,0.59 -0.64,1.19 -1.41,1.9z" fill="#337B33" id="svg_74" opacity="1"/>
  <path d="m524.95,308.47c0.32,-0.6 0.85,-1.02 1.72,-1.46c-0.27,0.54 -0.89,1.08 -1.72,1.46z" fill="#337B33" id="svg_75" opacity="1"/>
  <path d="m646.24,295.24c0.38,-0.05 0.88,0.14 1.52,0.58c-0.38,0.05 -0.89,-0.14 -1.52,-0.58z" fill="#2D2D2D" id="svg_76" opacity="1"/>
  <path d="m529.25,304.95c-0.08,-0.22 0.09,-0.51 0.52,-0.88c0.08,0.22 -0.09,0.51 -0.52,0.88z" fill="#337B33" id="svg_77" opacity="1"/>
  <path d="m528.25,305.95c-0.08,-0.22 0.09,-0.51 0.52,-0.88c0.08,0.22 -0.09,0.51 -0.52,0.88z" fill="#337B33" id="svg_78" opacity="1"/>
  <path d="m527.25,306.95c-0.08,-0.22 0.09,-0.51 0.52,-0.88c0.08,0.22 -0.09,0.51 -0.52,0.88z" fill="#337B33" id="svg_79" opacity="1"/>
  <path d="m544.25,289.95c-0.08,-0.22 0.09,-0.51 0.52,-0.88c0.08,0.22 -0.09,0.51 -0.52,0.88z" fill="#337B33" id="svg_80" opacity="1"/>
  <path d="m543.25,290.95c-0.08,-0.22 0.09,-0.51 0.52,-0.88c0.08,0.22 -0.09,0.51 -0.52,0.88z" fill="#337B33" id="svg_81" opacity="1"/>
  <path d="m542.25,291.95c-0.08,-0.22 0.09,-0.51 0.52,-0.88c0.08,0.22 -0.09,0.51 -0.52,0.88z" fill="#337B33" id="svg_82" opacity="1"/>
  <path d="m541.25,292.95c-0.08,-0.22 0.09,-0.52 0.52,-0.88c0.08,0.22 -0.09,0.51 -0.52,0.88z" fill="#337B33" id="svg_83" opacity="1"/>
  <path d="m540.25,293.95c-0.08,-0.22 0.09,-0.52 0.52,-0.88c0.08,0.22 -0.1,0.51 -0.52,0.88z" fill="#337B33" id="svg_84" opacity="1"/>
  <path d="m539.25,294.94c-0.08,-0.21 0.09,-0.51 0.52,-0.87c0.08,0.22 -0.1,0.51 -0.52,0.87z" fill="#337B33" id="svg_85" opacity="1"/>
  <path d="m545.25,288.95c-0.08,-0.22 0.09,-0.51 0.52,-0.88c0.08,0.22 -0.09,0.51 -0.52,0.88z" fill="#337B33" id="svg_86" opacity="1"/>
  <path d="m538.25,295.94c-0.08,-0.21 0.09,-0.51 0.52,-0.87c0.08,0.22 -0.1,0.5 -0.52,0.87z" fill="#337B33" id="svg_87" opacity="1"/>
  <path d="m546.25,287.95c-0.08,-0.22 0.09,-0.52 0.52,-0.88c0.08,0.22 -0.09,0.51 -0.52,0.88z" fill="#337B33" id="svg_88" opacity="1"/>
  <path d="m547.25,286.95c-0.08,-0.22 0.09,-0.52 0.52,-0.88c0.08,0.22 -0.1,0.51 -0.52,0.88z" fill="#337B33" id="svg_89" opacity="1"/>
  <path d="m548.25,285.95c-0.08,-0.22 0.09,-0.52 0.52,-0.88c0.08,0.22 -0.1,0.51 -0.52,0.88z" fill="#337B33" id="svg_90" opacity="1"/>
  <path d="m530.25,303.95c-0.08,-0.22 0.09,-0.52 0.52,-0.88c0.08,0.22 -0.09,0.51 -0.52,0.88z" fill="#337B33" id="svg_91" opacity="1"/>
  <path d="m531.25,302.95c-0.08,-0.22 0.09,-0.52 0.52,-0.88c0.08,0.22 -0.09,0.51 -0.52,0.88z" fill="#337B33" id="svg_92" opacity="1"/>
  <path d="m554.25,279.95c-0.08,-0.22 0.09,-0.52 0.52,-0.88c0.08,0.22 -0.1,0.51 -0.52,0.88z" fill="#337B33" id="svg_93" opacity="1"/>
  <path d="m555.25,278.95c-0.08,-0.22 0.09,-0.52 0.52,-0.88c0.08,0.22 -0.1,0.51 -0.52,0.88z" fill="#337B33" id="svg_94" opacity="1"/>
  <path d="m556.25,277.95c-0.08,-0.22 0.09,-0.51 0.52,-0.88c0.08,0.22 -0.1,0.51 -0.52,0.88z" fill="#337B33" id="svg_95" opacity="1"/>
  <path d="m557.25,276.95c-0.08,-0.22 0.09,-0.51 0.52,-0.88c0.08,0.22 -0.1,0.51 -0.52,0.88z" fill="#337B33" id="svg_96" opacity="1"/>
  <path d="m580.24,253.94c-0.07,-0.21 0.11,-0.5 0.53,-0.87c0.07,0.21 -0.11,0.49 -0.53,0.87z" fill="#337B33" id="svg_97" opacity="1"/>
  <path d="m570.25,263.94c-0.08,-0.21 0.09,-0.51 0.52,-0.87c0.08,0.22 -0.1,0.51 -0.52,0.87z" fill="#337B33" id="svg_98" opacity="1"/>
  <path d="m571.25,262.94c-0.08,-0.21 0.09,-0.5 0.52,-0.87c0.08,0.22 -0.1,0.51 -0.52,0.87z" fill="#337B33" id="svg_99" opacity="1"/>
  <path d="m572.25,261.94c-0.08,-0.21 0.1,-0.5 0.52,-0.87c0.08,0.21 -0.1,0.5 -0.52,0.87z" fill="#337B33" id="svg_100" opacity="1"/>
  <path d="m573.24,260.94c-0.07,-0.21 0.11,-0.5 0.53,-0.87c0.08,0.21 -0.1,0.5 -0.53,0.87z" fill="#337B33" id="svg_101" opacity="1"/>
  <path d="m652.03,300.34c0.25,-0.15 0.5,0.01 0.77,0.48c-0.26,0.19 -0.52,0.04 -0.77,-0.48z" fill="#2D2D2D" id="svg_102" opacity="1"/>
  <path d="m533.25,300.95c-0.08,-0.22 0.09,-0.52 0.52,-0.88c0.08,0.22 -0.09,0.51 -0.52,0.88z" fill="#337B33" id="svg_103" opacity="1"/>
  <path d="m574.24,259.94c-0.07,-0.21 0.11,-0.5 0.54,-0.87c0.07,0.21 -0.11,0.5 -0.54,0.87z" fill="#337B33" id="svg_104" opacity="1"/>
  <path d="m575.24,258.94c-0.07,-0.21 0.11,-0.5 0.53,-0.87c0.08,0.21 -0.1,0.5 -0.53,0.87z" fill="#337B33" id="svg_105" opacity="1"/>
  <path d="m576.24,257.94c-0.07,-0.21 0.11,-0.5 0.53,-0.87c0.08,0.21 -0.1,0.5 -0.53,0.87z" fill="#337B33" id="svg_106" opacity="1"/>
  <path d="m577.24,256.94c-0.07,-0.21 0.11,-0.5 0.53,-0.87c0.08,0.21 -0.1,0.5 -0.53,0.87z" fill="#337B33" id="svg_107" opacity="1"/>
  <path d="m578.24,255.94c-0.07,-0.21 0.1,-0.5 0.53,-0.87c0.08,0.21 -0.1,0.5 -0.53,0.87z" fill="#337B33" id="svg_108" opacity="1"/>
  <path d="m579.24,254.94c-0.07,-0.21 0.11,-0.5 0.53,-0.87c0.07,0.21 -0.11,0.49 -0.53,0.87z" fill="#337B33" id="svg_109" opacity="1"/>
  <path d="m651.03,299.34c0.25,-0.16 0.5,0.01 0.77,0.48c-0.26,0.19 -0.52,0.04 -0.77,-0.48z" fill="#2D2D2D" id="svg_110" opacity="1"/>
  <path d="m558.25,275.95c-0.08,-0.22 0.09,-0.51 0.52,-0.88c0.08,0.22 -0.1,0.51 -0.52,0.88z" fill="#337B33" id="svg_111" opacity="1"/>
  <path d="m581.24,252.94c-0.07,-0.21 0.11,-0.5 0.53,-0.87c0.07,0.21 -0.11,0.5 -0.53,0.87z" fill="#337B33" id="svg_112" opacity="1"/>
  <path d="m584.24,249.94c-0.07,-0.21 0.11,-0.5 0.53,-0.87c0.08,0.21 -0.1,0.5 -0.53,0.87z" fill="#337B33" id="svg_113" opacity="1"/>
  <path d="m585.24,248.94c-0.07,-0.21 0.11,-0.5 0.53,-0.87c0.08,0.21 -0.1,0.5 -0.53,0.87z" fill="#337B33" id="svg_114" opacity="1"/>
  <path d="m650.03,298.34c0.25,-0.16 0.5,0.01 0.77,0.48c-0.26,0.19 -0.52,0.03 -0.77,-0.48z" fill="#2D2D2D" id="svg_115" opacity="1"/>
  <path d="m649.03,297.34c0.25,-0.16 0.5,0 0.77,0.48c-0.26,0.19 -0.52,0.03 -0.77,-0.48z" fill="#2D2D2D" id="svg_116" opacity="1"/>
  <path d="m648.03,296.34c0.25,-0.16 0.5,0 0.77,0.48c-0.25,0.19 -0.52,0.03 -0.77,-0.48z" fill="#2D2D2D" id="svg_117" opacity="1"/>
  <path d="m532.25,301.95c-0.08,-0.22 0.09,-0.52 0.52,-0.88c0.08,0.22 -0.09,0.51 -0.52,0.88z" fill="#337B33" id="svg_118" opacity="1"/>
  <path d="m563.25,270.94c-0.08,-0.21 0.09,-0.51 0.52,-0.87c0.08,0.22 -0.1,0.51 -0.52,0.87z" fill="#337B33" id="svg_119" opacity="1"/>
  <path d="m562.25,271.94c-0.08,-0.21 0.09,-0.51 0.52,-0.87c0.08,0.22 -0.1,0.51 -0.52,0.87z" fill="#337B33" id="svg_120" opacity="1"/>
  <path d="m561.25,272.95c-0.08,-0.22 0.09,-0.51 0.52,-0.88c0.08,0.22 -0.1,0.51 -0.52,0.88z" fill="#337B33" id="svg_121" opacity="1"/>
  <path d="m569.25,264.94c-0.08,-0.21 0.09,-0.51 0.52,-0.87c0.08,0.22 -0.1,0.51 -0.52,0.87z" fill="#337B33" id="svg_122" opacity="1"/>
  <path d="m560.25,273.95c-0.08,-0.22 0.09,-0.51 0.52,-0.88c0.08,0.22 -0.1,0.51 -0.52,0.88z" fill="#337B33" id="svg_123" opacity="1"/>
  <path d="m559.25,274.95c-0.08,-0.22 0.09,-0.51 0.52,-0.88c0.08,0.22 -0.1,0.51 -0.52,0.88z" fill="#337B33" id="svg_124" opacity="1"/>
 </g>
</svg>